<?xml version="1.0" encoding="utf-8"?>
<!-- Generator: Adobe Illustrator 27.5.0, SVG Export Plug-In . SVG Version: 6.00 Build 0)  -->
<svg version="1.1" xmlns="http://www.w3.org/2000/svg" xmlns:xlink="http://www.w3.org/1999/xlink" x="0px" y="0px"
	 viewBox="0 0 900 600" style="enable-background:new 0 0 900 600;" xml:space="preserve">
<g id="Layer_2">
	<rect style="fill:#FFFFFF;" width="900" height="600"/>
	<rect style="opacity:0;fill:#FFFFFF;" width="900" height="600"/>
</g>
<g id="Layer_1">
	<g>
		<g>
			<path style="fill:#EFF4F9;" d="M188.469,344.316c-18.521-42.599-17.109-93.215,0.117-136.353
				c18.343-45.936,56.417-81.754,99.009-106.903c75.003-44.286,167.835-58.693,251.872-35.79
				c21.688,5.911,43.022,14.355,60.877,28.012c17.855,13.657,32.05,32.979,36.356,55.042c2.982,15.279,1.182,31.112,3.247,46.542
				c8.198,61.238,65.684,89.748,64.917,151.528c-0.479,38.604-26.849,65.631-63.768,89.631
				C608.728,457.066,276.275,546.269,188.469,344.316z"/>
		</g>
		<g>
			<g>
				<g>
					<ellipse style="fill:#E9ECF2;" cx="450" cy="529.764" rx="303.894" ry="16.8"/>
				</g>
			</g>
		</g>
		<g>
			<g>
				<g>
					<g>
						<g>
							<g>
								<g>
									<g>
										<path style="fill:#9AADE5;" d="M225.685,331.418c0.041,0.346,0.081,0.684,0.122,1.029
											c4.924,42.26,14.043,74.427,25.09,98.915l23.657,10.309l-18.238-0.15l-0.521-0.003
											c13.785,26.673,29.817,42.863,44.162,52.685c8.925,6.129,17.2,9.785,23.871,11.961c0.44,0.147,0.871,0.285,1.302,0.416
											c1.072,0.335,2.106,0.623,3.085,0.881l12.019-1.121c0.082-0.579,0.157-1.149,0.223-1.727
											c0.051-0.363,0.094-0.726,0.129-1.087c0.066-0.475,0.115-0.958,0.165-1.432c6.146-56.38-17.96-97.106-45.685-124.594
											c-0.077-0.095-0.17-0.18-0.273-0.273c-9.643-9.535-19.727-17.475-29.106-23.912l-3.308,14.198l-3.511-18.698
											c-16.209-10.321-29.239-15.82-32.43-17.101C225.942,331.514,225.685,331.418,225.685,331.418z"/>
									</g>
								</g>
							</g>
						</g>
					</g>
				</g>
			</g>
			<g>
				<g>
					<g>
						<g>
							<g>
								<g>
									<g>
										<g>
											<polygon style="fill:#FFFFFF;" points="225.291,331.677 225.807,332.448 257.807,380.15 258.381,380.992 267.103,394 
												267.399,394.433 295.217,435.896 295.256,435.952 340.586,503.526 341.269,504.538 342.349,506.143 343.398,506.045 
												342.326,504.439 340.751,502.095 296.016,435.412 295.184,434.175 226.438,331.715 226.061,331.153 											"/>
										</g>
									</g>
								</g>
							</g>
						</g>
					</g>
				</g>
			</g>
			<g>
				<g>
					<g>
						<g>
							<g>
								<g>
									<g>
										
											<rect x="250.214" y="367.715" transform="matrix(0.4414 -0.8973 0.8973 0.4414 -206.6753 440.6772)" style="fill:#FFFFFF;" width="0.81" height="37.255"/>
									</g>
								</g>
							</g>
						</g>
					</g>
				</g>
			</g>
			<g>
				<g>
					<g>
						<g>
							<g>
								<g>
									<g>
										
											<rect x="244.919" y="359.85" transform="matrix(0.4413 -0.8973 0.8973 0.4413 -198.9559 429.3361)" style="fill:#FFFFFF;" width="0.81" height="29.202"/>
									</g>
								</g>
							</g>
						</g>
					</g>
				</g>
			</g>
			<g>
				<g>
					<g>
						<g>
							<g>
								<g>
									<g>
										
											<rect x="294.734" y="377.226" transform="matrix(0.9999 -0.0164 0.0164 0.9999 -6.6262 4.8933)" style="fill:#FFFFFF;" width="0.81" height="58.727"/>
									</g>
								</g>
							</g>
						</g>
					</g>
				</g>
			</g>
			<g>
				<g>
					<g>
						<g>
							<g>
								<g>
									<g>
										<path style="fill:#BAC8F3;" d="M346.392,514.955c0,0-26.317,17.496-70.048-0.6l12.136-8.098l-21.164,3.971
											c-17.306-8.685-36.985-22.901-58.56-45.472l4.632-3.086l-6.417,1.2c-3.645-3.864-7.346-7.971-11.097-12.333
											c0,0,11.658-2.777,28.828-3.295l10.385,10.468l-4.052-10.54C266.332,447.355,319.243,458.089,346.392,514.955z"/>
									</g>
								</g>
							</g>
						</g>
					</g>
				</g>
			</g>
			<g>
				<g>
					<g>
						<g>
							<g>
								<g>
									<g>
										<g>
											
												<rect x="271.556" y="399.162" transform="matrix(0.3743 -0.9273 0.9273 0.3743 -276.0819 553.3924)" style="fill:#FFFFFF;" width="0.915" height="164.212"/>
										</g>
									</g>
								</g>
							</g>
						</g>
					</g>
				</g>
			</g>
			<g>
				<g>
					<g>
						<g>
							<g>
								<g>
									<g>
										
											<rect x="215.476" y="468.955" transform="matrix(0.9694 -0.2455 0.2455 0.9694 -108.331 69.7727)" style="fill:#FFFFFF;" width="20.404" height="0.849"/>
									</g>
								</g>
							</g>
						</g>
					</g>
				</g>
			</g>
			<g>
				<g>
					<g>
						<g>
							<g>
								<g>
									<g>
										
											<rect x="222.555" y="474.272" transform="matrix(0.9487 -0.3161 0.3161 0.9487 -138.043 98.5082)" style="fill:#FFFFFF;" width="24.043" height="0.85"/>
									</g>
								</g>
							</g>
						</g>
					</g>
				</g>
			</g>
			<g>
				<g>
					<g>
						<g>
							<g>
								<g>
									<g>
										<g>
											<path style="fill:#2E4882;" d="M305.798,468.231l0.589-0.896c-13.306-8.741-28.834-14.804-46.156-18.02l-0.196,1.055
												C277.215,453.559,292.612,459.568,305.798,468.231z"/>
										</g>
									</g>
								</g>
							</g>
						</g>
					</g>
				</g>
			</g>
		</g>
		<g>
			<g>
				<g>
					<g>
						<g>
							<path style="fill:#446BD0;" d="M515.532,154.074v366.25c0,5.114-4.138,9.263-9.263,9.263H326.242
								c-5.114,0-9.263-4.149-9.263-9.263v-366.25c0-5.125,4.149-9.263,9.263-9.263h180.027
								C511.394,144.811,515.532,148.949,515.532,154.074z"/>
						</g>
					</g>
				</g>
			</g>
		</g>
		<g>
			<g>
				<g>
					<g>
						<g>
							<path style="fill:#A2C3F2;" d="M527.381,154.074v366.25c0,5.114-4.138,9.263-9.263,9.263H338.091
								c-5.114,0-9.263-4.149-9.263-9.263v-366.25c0-5.125,4.149-9.263,9.263-9.263h180.027
								C523.243,144.811,527.381,148.949,527.381,154.074z"/>
						</g>
					</g>
				</g>
			</g>
		</g>
		<g>
			<g>
				<g>
					<g>
						<g>
							<path style="fill:#E1EAFF;" d="M513.746,192.051v290.295c0,5.912-4.485,10.704-10.019,10.704H352.482
								c-5.533,0-10.019-4.792-10.019-10.704V192.051c0-5.912,4.486-10.704,10.019-10.704h151.245
								C509.26,181.347,513.746,186.139,513.746,192.051z"/>
						</g>
					</g>
				</g>
			</g>
		</g>
		<g>
			<g>
				<g>
					<g>
						<g>
							<g>
								<g>
									<path style="fill:#2E4882;" d="M453.122,162.466h-50.03c-0.493,0-0.893-0.4-0.893-0.893s0.4-0.893,0.893-0.893h50.03
										c0.493,0,0.893,0.4,0.893,0.893S453.615,162.466,453.122,162.466z"/>
								</g>
							</g>
						</g>
					</g>
				</g>
			</g>
		</g>
		<g>
			<g>
				<g>
					<g>
						<g>
							<path style="fill:#FFFFFF;" d="M505.661,495.195H350.549c-6.848,0-12.419-5.763-12.419-12.848V192.051
								c0-7.085,5.571-12.848,12.419-12.848h155.112c6.848,0,12.419,5.764,12.419,12.848v290.296
								C518.08,489.432,512.509,495.195,505.661,495.195z M350.549,183.491c-4.483,0-8.131,3.84-8.131,8.56v290.296
								c0,4.72,3.648,8.56,8.131,8.56h155.112c4.483,0,8.131-3.84,8.131-8.56V192.051c0-4.72-3.648-8.56-8.131-8.56H350.549z"/>
						</g>
					</g>
				</g>
			</g>
		</g>
		<g>
			<g>
				<g>
					<g>
						<g>
							<g>
								<path style="fill:#2E4882;" d="M528.19,154.074v313.78h-1.61v-313.78c0-4.66-3.8-8.46-8.46-8.46H338.09
									c-4.66,0-8.46,3.8-8.46,8.46v251.63h-1.61v-251.63c0-5.55,4.52-10.07,10.07-10.07h180.03
									C523.67,144.004,528.19,148.524,528.19,154.074z"/>
							</g>
						</g>
					</g>
				</g>
				<g>
					<g>
						<g>
							<g>
								<path style="fill:#2E4882;" d="M358.793,530.391h-20.703c-5.551,0-10.067-4.517-10.067-10.068v-42.355h1.608v42.355
									c0,4.664,3.794,8.46,8.458,8.46h20.703V530.391z"/>
							</g>
						</g>
					</g>
				</g>
				<g>
					<g>
						<g>
							<g>
								<rect x="381.773" y="528.783" style="fill:#2E4882;" width="79.162" height="1.608"/>
							</g>
						</g>
					</g>
				</g>
			</g>
		</g>
		<g>
			<g>
				<g>
					<g>
						<g>
							<path style="fill:#F49B51;" d="M593.988,524.037c0,2.766-20.316,5.017-45.371,5.017c-25.055,0-45.371-2.252-45.371-5.017
								c0-0.054,0.011-0.097,0.022-0.15v-13.562h90.689v13.53C593.977,523.919,593.988,523.972,593.988,524.037z"/>
						</g>
					</g>
				</g>
				<g>
					<g>
						<g>
							<ellipse style="fill:#FCC659;" cx="548.615" cy="510.449" rx="45.369" ry="5.017"/>
						</g>
					</g>
				</g>
			</g>
			<g>
				<g>
					<g>
						<g>
							<path style="fill:#F49B51;" d="M604.709,507.674c0,2.766-20.316,5.018-45.371,5.018c-25.055,0-45.371-2.252-45.371-5.018
								c0-0.054,0.011-0.096,0.021-0.15v-13.562h90.689v13.53C604.698,507.556,604.709,507.609,604.709,507.674z"/>
						</g>
					</g>
				</g>
				<g>
					<g>
						<g>
							<ellipse style="fill:#FCC659;" cx="559.336" cy="494.086" rx="45.369" ry="5.017"/>
						</g>
					</g>
				</g>
			</g>
			<g>
				<g>
					<g>
						<g>
							<path style="fill:#F49B51;" d="M593.988,491.311c0,2.766-20.316,5.017-45.371,5.017c-25.055,0-45.371-2.251-45.371-5.017
								c0-0.054,0.011-0.097,0.022-0.15v-13.562h90.689v13.53C593.977,491.193,593.988,491.247,593.988,491.311z"/>
						</g>
					</g>
				</g>
				<g>
					<g>
						<g>
							<ellipse style="fill:#FCC659;" cx="548.615" cy="477.723" rx="45.369" ry="5.017"/>
						</g>
					</g>
				</g>
			</g>
			<g>
				<g>
					<g>
						<g>
							<g>
								<path style="fill:#2E4882;" d="M548.622,529.587c-18.454,0-45.908-1.479-45.908-5.554h1.072
									c0,1.564,15.399,4.482,44.835,4.482c1.07,0,2.132-0.004,3.183-0.013l0.008,1.072
									C550.76,529.583,549.694,529.587,548.622,529.587z"/>
							</g>
						</g>
					</g>
				</g>
				<g>
					<g>
						<g>
							<g>
								<path style="fill:#2E4882;" d="M566.609,529.177l-0.05-1.07c4.594-0.221,8.806-0.521,12.521-0.895l0.107,1.066
									C575.454,528.653,571.223,528.956,566.609,529.177z"/>
							</g>
						</g>
					</g>
				</g>
			</g>
			<g>
				<g>
					<g>
						<g>
							<g>
								<path style="fill:#2E4882;" d="M530.714,512.018c-17.05-1.552-17.05-3.701-17.05-4.408h1.072
									c0,0.522,2.888,2.14,16.074,3.34L530.714,512.018z"/>
							</g>
						</g>
					</g>
				</g>
				<g>
					<g>
						<g>
							<g>
								<path style="fill:#2E4882;" d="M559.571,513.163c-5.101,0-10.109-0.093-14.889-0.276l0.042-1.072
									c8.535,0.329,17.971,0.366,26.765,0.1l0.031,1.072C567.627,513.104,563.606,513.163,559.571,513.163z"/>
							</g>
						</g>
					</g>
				</g>
				<g>
					<g>
						<g>
							<g>
								<path style="fill:#2E4882;" d="M582.784,512.458l-0.071-1.07c4.838-0.318,9.058-0.73,12.542-1.223l0.151,1.062
									C591.894,511.723,587.648,512.137,582.784,512.458z"/>
							</g>
						</g>
					</g>
				</g>
			</g>
			<g>
				<g>
					<g>
						<g>
							<g>
								<path style="fill:#2E4882;" d="M518.11,481.996c-15.121-1.542-15.121-3.49-15.121-4.223h1.072
									c0,0.017,0.385,1.752,14.158,3.157L518.11,481.996z"/>
							</g>
						</g>
					</g>
				</g>
				<g>
					<g>
						<g>
							<g>
								<path style="fill:#2E4882;" d="M548.895,483.327c-5.216,0-10.318-0.096-15.161-0.287l0.042-1.072
									c4.83,0.191,9.917,0.287,15.119,0.287c9.311,0,18.253-0.31,25.86-0.896l0.082,1.068
									C567.204,483.016,558.233,483.327,548.895,483.327z"/>
							</g>
						</g>
					</g>
				</g>
			</g>
			<g>
				<g>
					<g>
						<g>
							<path style="fill:#F49B51;" d="M610.07,474.948c0,2.766-20.316,5.017-45.371,5.017s-45.371-2.251-45.371-5.017
								c0-0.054,0.011-0.096,0.022-0.15v-13.562h90.689v13.53C610.059,474.83,610.07,474.884,610.07,474.948z"/>
						</g>
					</g>
				</g>
				<g>
					<g>
						<g>
							<ellipse style="fill:#FCC659;" cx="564.696" cy="461.36" rx="45.369" ry="5.017"/>
						</g>
					</g>
				</g>
				<g>
					<g>
						<g>
							<path style="fill:#F49B51;" d="M601.651,461.36c0,1.863-16.545,3.374-36.954,3.374s-36.954-1.511-36.954-3.374
								c0-1.864,16.545-3.374,36.954-3.374S601.651,459.497,601.651,461.36z"/>
						</g>
					</g>
				</g>
			</g>
		</g>
		<g style="opacity:0.38;">
			<g>
				<g>
					<g>
						<path style="fill:#A3B2CE;" d="M527.17,297.124v130.26H413.715c-4.421,0-8.035-3.05-8.035-6.79v-116.69
							c0-3.73,3.615-6.78,8.035-6.78H527.17z"/>
					</g>
				</g>
			</g>
		</g>
		<g>
			<g>
				<g>
					<g>
						<path style="fill:#FCC659;" d="M443.953,67.391c-25.298,0.712-45.226,21.802-44.513,47.109
							c0.712,25.298,21.802,45.235,47.109,44.513c25.298-0.712,45.235-21.803,44.513-47.109
							C490.35,86.606,469.26,66.678,443.953,67.391z M482.127,112.159c0.277,9.847-3.297,19.215-10.07,26.377
							c-6.763,7.162-15.908,11.264-25.764,11.542c-20.327,0.571-37.338-15.498-37.91-35.834
							c-0.277-9.846,3.288-19.214,10.061-26.376c6.528-6.908,15.28-10.97,24.738-11.495c0.345-0.019,0.681-0.028,1.026-0.038
							c20-0.572,36.771,14.972,37.872,34.817C482.1,111.488,482.118,111.823,482.127,112.159z"/>
					</g>
				</g>
			</g>
			<g>
				<g>
					<g>
						<path style="fill:#F49B51;" d="M482.082,111.152c0.019,0.335,0.037,0.671,0.046,1.007c0.278,9.847-3.297,19.215-10.07,26.378
							c-6.764,7.162-15.908,11.265-25.764,11.543c-20.327,0.571-37.339-15.499-37.911-35.835
							c-0.277-9.847,3.288-19.215,10.061-26.377c6.528-6.908,15.28-10.97,24.738-11.495c0.345-0.019,0.681-0.028,1.027-0.038
							C464.209,75.762,480.98,91.306,482.082,111.152z"/>
					</g>
				</g>
			</g>
			<g>
				<g>
					<g>
						<g>
							<path style="fill:#FCC659;" d="M444.484,141.501l-0.385-6.93c-3.983,0.153-8.169-0.854-10.665-2.436l1.392-4.688
								c2.562,1.509,6.202,2.615,10.044,2.402c4.872-0.27,8.009-3.267,7.792-7.177c-0.21-3.774-3.015-5.959-8.207-7.735
								c-7.152-2.357-11.65-5.273-11.981-11.243c-0.316-5.695,3.492-10.243,9.748-11.622l-0.385-6.93l4.254-0.236l0.37,6.656
								c4.125-0.092,6.999,0.85,9.054,1.906l-1.465,4.624c-1.486-0.743-4.383-2.096-8.775-1.853
								c-5.283,0.293-7.098,3.56-6.946,6.305c0.198,3.568,2.836,5.211,8.943,7.35c7.227,2.49,10.994,5.86,11.333,11.966
								c0.301,5.421-3.191,10.708-10.194,12.267l0.396,7.136L444.484,141.501z"/>
						</g>
					</g>
				</g>
			</g>
			<g>
				<g>
					<g>
						<path style="fill:#2E4882;" d="M480.057,102.024c-0.094-0.295-0.196-0.589-0.298-0.881
							c-3.482-9.937-11.061-17.852-20.815-21.776l0.373-0.928c10.021,4.033,17.809,12.165,21.365,22.315
							c0.126,0.362,0.231,0.663,0.329,0.968L480.057,102.024z"/>
					</g>
				</g>
			</g>
			<g>
				<g>
					<g>
						<path style="fill:#2E4882;" d="M458.944,79.367c-7.843-3.157-16.592-3.473-24.637-0.897l-0.305-0.951
							c8.267-2.651,17.257-2.321,25.315,0.921L458.944,79.367z"/>
					</g>
				</g>
			</g>
			<g>
				<g>
					<g>
						<path style="fill:#2E4882;" d="M478.633,130.239l-0.888-0.457c2.217-4.301,3.543-8.894,3.938-13.649l0.996,0.084
							C482.272,121.102,480.911,125.82,478.633,130.239z"/>
					</g>
				</g>
			</g>
			<g>
				<g>
					<g>
						<g>
							<path style="fill:#2E4882;" d="M473.145,77.518c-3.708-2.902-7.819-5.198-12.22-6.823l0.372-1.006
								c4.505,1.665,8.713,4.015,12.508,6.985L473.145,77.518z"/>
						</g>
					</g>
				</g>
			</g>
			<g>
				<g>
					<g>
						<g>
							<path style="fill:#2E4882;" d="M473.212,150.197l-0.647-0.855c11.661-8.828,18.375-22.816,17.961-37.417
								c-0.257-9.074-3.178-17.751-8.449-25.094l0.871-0.625c5.395,7.518,8.387,16.401,8.65,25.689
								C492.021,126.841,485.147,141.159,473.212,150.197z"/>
						</g>
					</g>
				</g>
			</g>
		</g>
		<g>
			<g>
				<g>
					<g>
						<path style="fill:#FCC659;" d="M324.068,220.871c-20.814,4.846-33.755,25.65-28.907,46.472
							c4.846,20.814,25.652,33.763,46.472,28.907c20.814-4.846,33.762-25.652,28.907-46.472
							C365.693,228.964,344.889,216.023,324.068,220.871z M363.189,251.492c1.887,8.101,0.505,16.455-3.895,23.521
							c-4.392,7.064-11.268,11.997-19.377,13.886c-16.724,3.893-33.504-6.542-37.399-23.273c-1.886-8.101-0.513-16.453,3.887-23.519
							c4.239-6.815,10.798-11.648,18.536-13.674c0.282-0.074,0.559-0.138,0.843-0.204c16.453-3.839,32.946,6.202,37.197,22.438
							C363.053,250.941,363.125,251.216,363.189,251.492z"/>
					</g>
				</g>
			</g>
			<g>
				<g>
					<g>
						<path style="fill:#F49B51;" d="M362.982,250.667c0.072,0.274,0.144,0.549,0.208,0.825c1.886,8.101,0.505,16.455-3.895,23.522
							c-4.392,7.064-11.268,11.998-19.377,13.886c-16.724,3.893-33.505-6.542-37.4-23.274c-1.886-8.101-0.513-16.453,3.887-23.52
							c4.239-6.815,10.798-11.648,18.536-13.674c0.282-0.074,0.559-0.138,0.843-0.204
							C342.238,224.389,358.731,234.43,362.982,250.667z"/>
					</g>
				</g>
			</g>
			<g>
				<g>
					<g>
						<g>
							<path style="fill:#FCC659;" d="M336.977,282.106l-1.484-5.67c-3.27,0.797-6.903,0.668-9.235-0.221l0.363-4.114
								c2.374,0.818,5.572,1.12,8.715,0.297c3.986-1.044,6.078-4.051,5.24-7.25c-0.808-3.088-3.497-4.423-8.092-5.02
								c-6.314-0.747-10.527-2.403-11.806-7.287c-1.22-4.659,1.166-9.063,6.111-11.257l-1.484-5.67l3.48-0.911l1.426,5.445
								c3.398-0.77,5.935-0.474,7.813,0.054l-0.434,4.072c-1.355-0.365-3.98-0.997-7.573-0.057c-4.323,1.132-5.275,4.14-4.687,6.386
								c0.764,2.919,3.224,3.835,8.637,4.577c6.399,0.844,10.083,2.999,11.391,7.995c1.161,4.435-0.839,9.398-6.371,11.866
								l1.529,5.838L336.977,282.106z"/>
						</g>
					</g>
				</g>
			</g>
			<g>
				<g>
					<g>
						<path style="fill:#2E4882;" d="M359.771,243.454c-0.127-0.228-0.261-0.454-0.395-0.679
							c-4.553-7.636-12.157-12.911-20.888-14.517l0.152-0.831c8.971,1.651,16.784,7.07,21.434,14.87
							c0.165,0.278,0.303,0.51,0.435,0.745L359.771,243.454z"/>
					</g>
				</g>
			</g>
			<g>
				<g>
					<g>
						<path style="fill:#2E4882;" d="M338.488,228.258c-7.021-1.293-14.314-0.082-20.538,3.403l-0.413-0.736
							c6.395-3.584,13.889-4.825,21.103-3.498L338.488,228.258z"/>
					</g>
				</g>
			</g>
			<g>
				<g>
					<g>
						<path style="fill:#2E4882;" d="M363.339,267.041l-0.812-0.229c1.111-3.932,1.435-7.955,0.962-11.957l0.839-0.098
							C364.814,258.868,364.481,263.001,363.339,267.041z"/>
					</g>
				</g>
			</g>
			<g>
				<g>
					<g>
						<g>
							<path style="fill:#2E4882;" d="M349.927,224.339c-3.557-1.778-7.345-2.985-11.26-3.59l0.138-0.895
								c4.008,0.62,7.885,1.856,11.526,3.676L349.927,224.339z"/>
						</g>
					</g>
				</g>
			</g>
			<g>
				<g>
					<g>
						<g>
							<path style="fill:#2E4882;" d="M362.212,284.468l-0.68-0.599c8.164-9.267,11.366-21.972,8.567-33.984
								c-1.74-7.465-5.617-14.154-11.214-19.343l0.616-0.664c5.729,5.313,9.7,12.16,11.48,19.802
								C373.846,261.976,370.568,274.981,362.212,284.468z"/>
						</g>
					</g>
				</g>
			</g>
		</g>
		<g>
			<g>
				<g>
					<g>
						<g>
							<g>
								<path style="fill:#6D92F0;" d="M422.464,417.384h181.314c3.732,0,6.786-3.054,6.786-6.786v-116.69
									c0-3.733-3.054-6.786-6.786-6.786H422.464c-3.732,0-6.786,3.054-6.786,6.786v116.69
									C415.678,414.33,418.732,417.384,422.464,417.384z"/>
							</g>
						</g>
					</g>
				</g>
				<g>
					<g>
						<g>
							<g>
								<g>
									<g>
										<g>
											<path style="fill:#FFFFFF;" d="M464.725,376.69h-32.641c-1.011,0-1.838-0.827-1.838-1.838v-6.273
												c0-1.011,0.827-1.838,1.838-1.838h32.641c1.011,0,1.838,0.827,1.838,1.838v6.273
												C466.563,375.863,465.736,376.69,464.725,376.69z"/>
										</g>
									</g>
								</g>
							</g>
						</g>
					</g>
					<g>
						<g>
							<g>
								<g>
									<g>
										<g>
											<path style="fill:#FFFFFF;" d="M507.869,376.69h-32.641c-1.011,0-1.838-0.827-1.838-1.838v-6.273
												c0-1.011,0.827-1.838,1.838-1.838h32.641c1.011,0,1.838,0.827,1.838,1.838v6.273
												C509.707,375.863,508.88,376.69,507.869,376.69z"/>
										</g>
									</g>
								</g>
							</g>
						</g>
					</g>
					<g>
						<g>
							<g>
								<g>
									<g>
										<g>
											<path style="fill:#FFFFFF;" d="M551.014,376.69h-32.641c-1.011,0-1.838-0.827-1.838-1.838v-6.273
												c0-1.011,0.827-1.838,1.838-1.838h32.641c1.011,0,1.838,0.827,1.838,1.838v6.273
												C552.852,375.863,552.024,376.69,551.014,376.69z"/>
										</g>
									</g>
								</g>
							</g>
						</g>
					</g>
					<g>
						<g>
							<g>
								<g>
									<g>
										<g>
											<path style="fill:#FFFFFF;" d="M594.158,376.69h-32.641c-1.011,0-1.838-0.827-1.838-1.838v-6.273
												c0-1.011,0.827-1.838,1.838-1.838h32.641c1.011,0,1.838,0.827,1.838,1.838v6.273
												C595.996,375.863,595.169,376.69,594.158,376.69z"/>
										</g>
									</g>
								</g>
							</g>
						</g>
					</g>
				</g>
				<g>
					<g>
						<g>
							<g>
								<g>
									<g>
										<g>
											<path style="fill:#FFFFFF;" d="M593.759,396.152h-42.942c-1.23,0-2.237-1.007-2.237-2.237v-5.476
												c0-1.23,1.006-2.237,2.237-2.237h42.942c1.23,0,2.237,1.007,2.237,2.237v5.476
												C595.996,395.146,594.989,396.152,593.759,396.152z"/>
										</g>
									</g>
								</g>
							</g>
						</g>
					</g>
				</g>
				<g>
					<g>
						<g>
							<g>
								<g>
									<g>
										<g>
											<path style="fill:#FFFFFF;" d="M438.532,325.563v-13.066c0-2.856,2.324-5.179,5.179-5.179h25.383
												c2.856,0,5.179,2.323,5.179,5.179v13.066c0,2.856-2.324,5.179-5.179,5.179h-25.383
												C440.856,330.742,438.532,328.418,438.532,325.563z M443.711,308.707c-2.089,0-3.789,1.7-3.789,3.789v13.066
												c0,2.089,1.7,3.789,3.789,3.789h25.383c2.089,0,3.789-1.7,3.789-3.789v-13.066c0-2.089-1.7-3.789-3.789-3.789H443.711z"
												/>
										</g>
									</g>
								</g>
							</g>
						</g>
					</g>
				</g>
				<g>
					<g>
						<g>
							<g>
								<g>
									<g>
										<path style="fill:#FFFFFF;" d="M589.974,317.217c0-0.161,0.062-0.322,0.184-0.445c5.708-5.709,5.708-14.996,0-20.704
											c-0.246-0.246-0.246-0.644,0-0.89c0.246-0.246,0.644-0.246,0.89,0c6.198,6.199,6.199,16.286,0,22.484
											c-0.246,0.246-0.644,0.246-0.89,0C590.035,317.539,589.974,317.378,589.974,317.217z"/>
									</g>
								</g>
							</g>
						</g>
					</g>
					<g>
						<g>
							<g>
								<g>
									<g>
										<path style="fill:#FFFFFF;" d="M586.825,299.222c0-0.161,0.061-0.322,0.184-0.445c0.246-0.246,0.644-0.246,0.89,0
											c4.214,4.214,4.214,11.071,0,15.285c-0.246,0.246-0.644,0.246-0.89,0c-0.246-0.246-0.246-0.644,0-0.89
											c3.723-3.724,3.723-9.782,0-13.504C586.886,299.544,586.825,299.383,586.825,299.222z"/>
									</g>
								</g>
							</g>
						</g>
					</g>
					<g>
						<g>
							<g>
								<g>
									<g>
										<path style="fill:#FFFFFF;" d="M583.804,310.277c0-0.161,0.061-0.322,0.184-0.445c1.881-1.881,1.881-4.942,0-6.824
											c-0.246-0.246-0.246-0.644,0-0.89c0.246-0.246,0.644-0.246,0.89,0c2.372,2.372,2.372,6.232,0,8.604
											c-0.246,0.246-0.644,0.246-0.89,0C583.865,310.599,583.804,310.438,583.804,310.277z"/>
									</g>
								</g>
							</g>
						</g>
					</g>
				</g>
			</g>
			<g>
				<g>
					<g>
						<g>
							<g>
								<path style="fill:#2E4882;" d="M611.242,319.006h-1.356v-25.82c0-3.368-2.74-6.108-6.107-6.108h-55.483v-1.356h55.483
									c4.116,0,7.464,3.348,7.464,7.464V319.006z"/>
							</g>
						</g>
					</g>
				</g>
				<g>
					<g>
						<g>
							<g>
								<rect x="609.886" y="332.566" style="fill:#2E4882;" width="1.356" height="14.932"/>
							</g>
						</g>
					</g>
				</g>
				<g>
					<g>
						<g>
							<g>
								<rect x="449.835" y="285.722" style="fill:#2E4882;" width="35.544" height="1.356"/>
							</g>
						</g>
					</g>
				</g>
			</g>
		</g>
		<g>
			<g>
				<g>
					<g>
						<path style="fill:#FCC659;" d="M614.867,151.455c-26.768-7.248-54.342,8.582-61.592,35.36
							c-7.248,26.768,8.579,54.352,35.36,61.592c26.768,7.248,54.352-8.579,61.592-35.36
							C657.475,186.279,641.645,158.706,614.867,151.455z M640.771,210.492c-2.821,10.419-9.532,19.119-18.902,24.493
							c-9.36,5.376-20.25,6.791-30.68,3.968c-21.508-5.825-34.278-28.061-28.45-49.579c2.821-10.419,9.522-19.121,18.892-24.495
							c9.032-5.185,19.499-6.68,29.588-4.242c0.368,0.089,0.723,0.186,1.089,0.285c21.165,5.721,33.849,27.33,28.732,48.501
							C640.955,209.779,640.868,210.137,640.771,210.492z"/>
					</g>
				</g>
			</g>
			<g>
				<g>
					<g>
						<path style="fill:#F49B51;" d="M641.042,209.421c-0.086,0.358-0.173,0.716-0.27,1.071
							c-2.821,10.419-9.532,19.119-18.903,24.493c-9.36,5.377-20.251,6.791-30.68,3.968c-21.508-5.825-34.279-28.062-28.451-49.581
							c2.821-10.419,9.522-19.122,18.893-24.496c9.032-5.185,19.499-6.681,29.589-4.242c0.368,0.089,0.723,0.186,1.089,0.285
							C633.475,166.64,646.159,188.25,641.042,209.421z"/>
					</g>
				</g>
			</g>
			<g>
				<g>
					<g>
						<g>
							<path style="fill:#FCC659;" d="M592.002,229.381l1.787-7.393c-4.228-1.098-8.301-3.478-10.421-5.927l2.942-4.479
								c2.211,2.393,5.68,4.704,9.78,5.694c5.197,1.256,9.436-0.896,10.444-5.068c0.973-4.026-1.28-7.205-6.166-10.709
								c-6.759-4.733-10.556-9.214-9.017-15.583c1.468-6.075,6.901-9.643,13.901-9.113l1.787-7.393l4.538,1.097l-1.716,7.1
								c4.357,1.207,7.075,3.104,8.897,4.861l-2.998,4.388c-1.325-1.249-3.937-3.585-8.621-4.717
								c-5.636-1.362-8.573,1.492-9.28,4.42c-0.92,3.807,1.329,6.364,7.06,10.538c6.796,4.896,9.683,9.623,8.108,16.137
								c-1.398,5.783-6.732,10.227-14.572,9.649l-1.84,7.612L592.002,229.381z"/>
						</g>
					</g>
				</g>
			</g>
			<g>
				<g>
					<g>
						<path style="fill:#2E4882;" d="M641.803,199.204c-0.005-0.339-0.02-0.68-0.034-1.019
							c-0.513-11.526-5.964-22.226-14.957-29.426l0.685-0.856c9.24,7.398,14.841,18.393,15.365,30.166
							c0.018,0.419,0.033,0.769,0.039,1.119L641.803,199.204z"/>
					</g>
				</g>
			</g>
			<g>
				<g>
					<g>
						<path style="fill:#2E4882;" d="M626.811,168.759c-7.232-5.791-16.311-8.888-25.566-8.728l-0.02-1.095
							c9.512-0.169,18.84,3.018,26.271,8.967L626.811,168.759z"/>
					</g>
				</g>
			</g>
			<g>
				<g>
					<g>
						<path style="fill:#2E4882;" d="M631.391,228.357l-0.787-0.76c3.686-3.812,6.528-8.212,8.446-13.077l1.019,0.403
							C638.097,219.921,635.177,224.441,631.391,228.357z"/>
					</g>
				</g>
			</g>
			<g>
				<g>
					<g>
						<g>
							<path style="fill:#2E4882;" d="M642.295,171.307c-2.974-4.217-6.561-7.925-10.665-11.021l0.708-0.938
								c4.2,3.17,7.873,6.966,10.916,11.283L642.295,171.307z"/>
						</g>
					</g>
				</g>
			</g>
			<g>
				<g>
					<g>
						<g>
							<path style="fill:#2E4882;" d="M619.395,247.584l-0.409-1.102c15.025-5.577,26.491-18.131,30.671-33.582
								c2.598-9.602,2.276-19.629-0.934-29l1.112-0.381c3.285,9.593,3.616,19.859,0.956,29.687
								C646.512,229.023,634.775,241.874,619.395,247.584z"/>
						</g>
					</g>
				</g>
			</g>
		</g>
		<g>
			<g>
				<path style="fill:#446BD0;" d="M487.224,304.649l35.266,23.882l28.226-30.236l-13.253,1.326
					c-0.163-0.91-0.357-1.815-0.538-2.718l-0.28-1.353c-0.045-0.225-0.093-0.45-0.153-0.673l-1.007-3.917
					c-3.119-11.025-8.396-21.22-15.285-29.91c-6.883-8.698-15.385-15.902-24.81-21.138c-9.42-5.252-19.752-8.5-30.093-9.672
					c-10.345-1.201-20.804-0.294-30.512,2.518c-9.717,2.806-18.689,7.503-26.303,13.622c-7.623,6.11-13.898,13.624-18.426,21.909
					c-4.541,8.281-7.309,17.319-8.271,26.371c2.648-8.718,6.963-16.741,12.55-23.497c5.579-6.766,12.405-12.269,19.867-16.206
					c7.458-3.949,15.554-6.312,23.609-7.034c8.061-0.725,16.07,0.175,23.489,2.545c7.427,2.354,14.169,6.104,19.816,10.904
					c5.653,4.793,10.212,10.623,13.429,16.951c3.225,6.327,4.758,13.2,5.7,19.868c0.207,1.468,0.479,5.234,0.479,5.234
					L487.224,304.649z"/>
			</g>
		</g>
		<g>
			<g>
				<g>
					<path style="fill:#FFE6A6;" d="M571.375,169.032c3.72,1.889,6.279,4.79,8.028,8.422l0,0c1.749-3.632,4.319-6.548,8.038-8.438
						l0,0c-3.72-1.89-6.289-4.79-8.038-8.422l0,0C577.654,164.226,575.095,167.142,571.375,169.032z"/>
				</g>
			</g>
			<g>
				<g>
					<path style="fill:#FFE6A6;" d="M607.337,238.106c2.161,1.098,3.648,2.783,4.665,4.894l0,0c1.016-2.111,2.509-3.805,4.671-4.903
						l0,0c-2.162-1.098-3.654-2.783-4.671-4.894l0,0C610.985,235.314,609.498,237.008,607.337,238.106z"/>
				</g>
			</g>
		</g>
		<g>
			<g>
				<path style="fill:#FFE6A6;" d="M459.764,140.75c2.651,1.346,4.474,3.413,5.72,6.001l0,0c1.247-2.588,3.077-4.666,5.728-6.012
					l0,0c-2.651-1.346-4.481-3.413-5.728-6.001l0,0C464.238,137.326,462.415,139.403,459.764,140.75z"/>
			</g>
		</g>
		<g>
			<g>
				<path style="fill:#FFE6A6;" d="M301.388,245.215c2.137,1.085,3.607,2.751,4.612,4.838l0,0c1.005-2.086,2.481-3.762,4.617-4.847
					l0,0c-2.137-1.086-3.613-2.751-4.617-4.838l0,0C304.995,242.455,303.525,244.13,301.388,245.215z"/>
			</g>
		</g>
		<g>
			<g>
				<path style="fill:#FFE6A6;" d="M450.234,150.731c1.54,0.782,2.6,1.983,3.324,3.487l0,0c0.724-1.504,1.788-2.711,3.328-3.494l0,0
					c-1.54-0.782-2.604-1.983-3.328-3.487l0,0C452.834,148.741,451.774,149.949,450.234,150.731z"/>
			</g>
		</g>
		<g>
			<g>
				<g>
					<g>
						<g>
							<path style="fill:#2E4882;" d="M168.902,303.656l-1.003,0.38c-7.479-19.712-6.294-41.02,3.734-67.058l1,0.385
								C162.706,263.141,161.521,284.206,168.902,303.656z"/>
						</g>
					</g>
				</g>
			</g>
			<g>
				<g>
					<g>
						<g>
							<path style="fill:#2E4882;" d="M165.828,318.916l-0.911,0.564c-21.526-34.811-8.964-70.651,6.164-101.119l0.96,0.476
								C157.044,249.042,144.578,284.552,165.828,318.916z"/>
						</g>
					</g>
				</g>
			</g>
			<g>
				<g>
					<g>
						<g>
							<path style="fill:#2E4882;" d="M622.801,101.504c-17.265-21.562-34.864-33.199-55.383-36.625l0.176-1.057
								c20.795,3.47,38.604,15.23,56.044,37.012L622.801,101.504z"/>
						</g>
					</g>
				</g>
			</g>
			<g>
				<g>
					<g>
						<g>
							<path style="fill:#2E4882;" d="M639.101,110.326c-18.532-28.172-42.924-56.833-83.316-55.79l-0.027-1.072
								c40.915-1.054,65.543,27.854,84.24,56.273L639.101,110.326z"/>
						</g>
					</g>
				</g>
			</g>
		</g>
		<g>
			<g>
				<path style="fill:#2E4882;" d="M493.876,278.662c-3.209-6.311-7.789-12.093-13.246-16.719
					c-5.598-4.76-12.36-8.481-19.557-10.762c-7.351-2.348-15.374-3.217-23.195-2.512c-3.875,0.348-7.761,1.081-11.549,2.181
					l-0.418-1.44c3.881-1.127,7.862-1.878,11.833-2.234c8.021-0.724,16.246,0.169,23.784,2.577
					c7.384,2.34,14.325,6.161,20.073,11.048c5.606,4.753,10.314,10.695,13.612,17.183L493.876,278.662z"/>
			</g>
			<g>
				<path style="fill:#2E4882;" d="M394.913,271.638l-1.157-0.954c5.528-6.704,12.477-12.373,20.096-16.392l0.7,1.326
					C407.107,259.546,400.316,265.086,394.913,271.638z"/>
			</g>
			<g>
				<path style="fill:#2E4882;" d="M534.763,291.163c-3.031-10.716-8.271-20.969-15.151-29.648
					c-6.733-8.509-15.235-15.753-24.587-20.949c-9.137-5.094-19.446-8.408-29.814-9.583l0.169-1.49
					c10.563,1.197,21.066,4.573,30.374,9.762c9.522,5.29,18.179,12.666,25.034,21.329c7.002,8.832,12.334,19.266,15.418,30.171
					L534.763,291.163z"/>
			</g>
			<g>
				<polygon style="fill:#2E4882;" points="522.6,329.511 495.763,311.337 496.604,310.095 522.379,327.55 543.409,305.022 
					544.505,306.046 				"/>
			</g>
		</g>
	</g>
</g>
</svg>
