<?xml version="1.0" encoding="utf-8"?>
<!-- Generator: Adobe Illustrator 27.5.0, SVG Export Plug-In . SVG Version: 6.00 Build 0)  -->
<svg version="1.1" xmlns="http://www.w3.org/2000/svg" xmlns:xlink="http://www.w3.org/1999/xlink" x="0px" y="0px"
	 viewBox="0 0 500 500" style="enable-background:new 0 0 500 500;" xml:space="preserve">
<g id="BACKGROUND">
	<g id="layer2">
		<circle id="path18415" style="fill:#E1F3FF;" cx="251.108" cy="247.446" r="236.333"/>
	</g>
</g>
<g id="OBJECTS">
	<g id="g1622">
		<path id="path15589" style="fill:#E9E9FF;" d="M250.787,362.326l182.98-2.182v10.476l-182.98,0.628V362.326z"/>
		<path id="path15591" style="fill:#353564;" d="M157.411,377.387v9.707l93.376-15.846v-8.922L157.411,377.387z"/>
		<path id="path15593" style="fill:#AFAFDE;" d="M157.411,387.094l184.226,2.353l92.13-18.826l-182.98,0.628L157.411,387.094z"/>
		<path id="path15595" style="fill:#362E95;" d="M157.411,377.387l184.226,0.485l92.13-17.728l-182.98,2.182L157.411,377.387z"/>
		<path id="path15597" style="fill:#7069D4;" d="M341.637,377.872v11.574l92.13-18.826v-10.476L341.637,377.872z"/>
		<path id="path15599" style="fill:#9B99FB;" d="M157.411,377.387l184.226,0.485v11.574l-184.226-2.353V377.387z"/>
		<path id="rect14478" style="fill:#9E9CFF;" d="M257.038,263.245h83.296c1.003,0,1.81,0.808,1.81,1.81v102.597
			c0,1.003-0.807,1.81-1.81,1.81h-83.296c-1.003,0-1.81-0.807-1.81-1.81V265.055C255.229,264.053,256.035,263.245,257.038,263.245z"
			/>
		<path id="rect14396" style="fill:#6A67E8;" d="M248.584,263.245h83.297c1.002,0,1.81,0.808,1.81,1.81v102.597
			c0,1.003-0.808,1.81-1.81,1.81h-83.297c-1.002,0-1.81-0.807-1.81-1.81V265.055C246.775,264.053,247.582,263.245,248.584,263.245z"
			/>
		<path id="rect14680" style="fill:#9E9CFF;" d="M290.375,266.316c9.491,0,17.131,10.524,17.131,23.598v32.16
			c0,13.074-7.64,23.599-17.131,23.599c-9.49,0-17.131-10.525-17.131-23.599v-32.16
			C273.244,276.841,280.885,266.316,290.375,266.316z"/>
		<path id="rect14480" style="fill:#FFFFFF;" d="M294.223,266.908c-7.627,2.392-13.285,11.755-13.285,23.006v32.16
			c0,11.251,5.658,20.614,13.285,23.006c7.626-2.393,13.283-11.756,13.283-23.006v-32.16
			C307.506,278.664,301.849,269.301,294.223,266.908z"/>
		<path id="path13450" style="fill:#9E9CFF;" d="M443.088,94.047l-1.746,4.664c-0.397-0.052-0.796-0.079-1.195-0.08H170.67
			c-7.322,0-13.748,4.88-15.713,11.934L101.629,301.9l-4.441-0.486l4.824,8.521c0.123,0.243,0.258,0.481,0.402,0.713l0.289,0.51
			l0.092-0.01c1.746,2.438,4.55,3.897,7.549,3.928h269.477c7.321,0,13.746-4.879,15.713-11.932l53.676-192.58
			c0.613-2.211,0.398-4.57-0.606-6.633l0.004-0.006l-0.029-0.053c-0.064-0.119-0.129-0.237-0.197-0.354L443.088,94.047z"/>
		<path id="rect12547" style="fill:#362E95;" d="M165.587,89.55h269.478c5.195,0,9.406,4.211,9.406,9.406
			c0,0.854-0.116,1.704-0.345,2.526l-53.675,192.58c-1.966,7.053-8.391,11.932-15.713,11.932H105.261
			c-5.195,0-9.406-4.211-9.406-9.406c0-0.854,0.116-1.703,0.345-2.525l53.675-192.58C151.84,94.429,158.265,89.55,165.587,89.55z"/>
		<path id="path13456" style="fill:#FF3A6C;" d="M165.59,95.271c-4.587-0.001-8.977,3.325-10.209,7.744l-53.674,192.586
			c-0.607,2.182,1.286,4.671,3.551,4.673h269.483c4.586-0.001,8.97-3.326,10.202-7.744l53.673-192.586
			c0.607-2.182-1.285-4.671-3.55-4.673H165.59z"/>
		<path id="path20134" style="opacity:0.179;fill:#FFC4DA;enable-background:new    ;" d="M216.157,95.272l-76.934,65.719
			l-27.156,97.437L311.471,95.272H216.157z M363.256,95.272L136.569,300.273h59.809L406.487,95.272H363.256z M427.768,138.873
			l-159.475,161.4h56.648l79.293-76.961L427.768,138.873z"/>
	</g>
	<g id="g1492">
		<path id="path15549" style="fill:#E9E9FF;" d="M99.216,391.685l280.298,5.241v8.794l-280.298-7.33V391.685z"/>
		<path id="path15551" style="fill:#353564;" d="M15.556,405.517v7.167l83.66-14.294v-6.705L15.556,405.517z"/>
		<path id="path15553" style="fill:#AFAFDE;" d="M15.556,412.684l277.749,12.874l86.209-19.838l-280.298-7.33L15.556,412.684z"/>
		<path id="path15555" style="fill:#4D4D9F;" d="M15.556,405.517l277.749,10.434l86.209-19.024l-280.298-5.241L15.556,405.517z"/>
		<path id="path15557" style="fill:#7069D4;" d="M293.305,415.95v9.607l86.209-19.838v-8.794L293.305,415.95z"/>
		<path id="path15559" style="fill:#9B99FB;" d="M15.556,405.517l277.749,10.434v9.607L15.556,412.684V405.517z"/>
		<path id="rect15888" style="fill:#362E95;" d="M100.198,391.703l277.632,5.191c0.933,0.02,1.146,0.15,0.477,0.298l-83.565,18.441
			c-0.795,0.175-2.198,0.288-3.142,0.253L16.508,405.552c-0.528-0.019-0.343-0.136,0.412-0.261l81.1-13.408
			C98.683,391.773,99.654,391.692,100.198,391.703L100.198,391.703z"/>
		<g id="g3697">
			<g id="g16301" transform="matrix(0.95319746,0,0,0.89283218,-1.8429594,0.297119)">
				<path id="rect16291" style="fill:#9B99FB;" d="M242.66,458.436l12.892,0.464c0.797,0.031,0.882,0.174,0.187,0.326l-11.798,2.58
					c-0.71,0.155-1.925,0.255-2.722,0.223l-12.884-0.507c-0.778-0.03-0.831-0.178-0.121-0.33l11.789-2.537
					C240.698,458.505,241.882,458.408,242.66,458.436L242.66,458.436z"/>
				<path id="rect16293" style="fill:#9B99FB;" d="M258.901,454.937l12.897,0.417c0.798,0.026,0.898,0.165,0.224,0.313
					l-11.457,2.505c-0.689,0.151-1.888,0.249-2.685,0.221l-12.893-0.457c-0.779-0.026-0.848-0.169-0.159-0.317l11.453-2.464
					C256.954,455.008,258.122,454.912,258.901,454.937L258.901,454.937z"/>
				<path id="rect16295" style="fill:#9B99FB;" d="M274.684,451.537l12.896,0.372c0.798,0.023,0.914,0.156,0.258,0.3l-11.129,2.434
					c-0.669,0.147-1.852,0.244-2.65,0.219l-12.897-0.41c-0.779-0.026-0.865-0.161-0.195-0.304l11.13-2.394
					c0.656-0.141,1.808-0.236,2.587-0.214V451.537z"/>
				<path id="rect16297" style="fill:#9B99FB;" d="M290.028,448.231l12.889,0.328c0.797,0.02,0.927,0.149,0.29,0.289l-10.816,2.365
					c-0.651,0.142-1.819,0.238-2.616,0.215l-12.896-0.364c-0.779-0.023-0.879-0.153-0.228-0.292l10.822-2.329
					c0.637-0.137,1.775-0.231,2.554-0.211V448.231z"/>
				<path id="rect16299" style="fill:#9B99FB;" d="M304.95,445.017l12.879,0.288c0.797,0.019,0.94,0.141,0.321,0.276l-10.516,2.299
					c-0.633,0.139-1.785,0.234-2.582,0.214l-12.888-0.323c-0.779-0.019-0.894-0.144-0.261-0.28l10.526-2.265
					C303.048,445.092,304.172,444.999,304.95,445.017L304.95,445.017z"/>
			</g>
			<g id="g16313" transform="matrix(0.95319746,0,0,0.89283218,3.8848514,0.297119)">
				<path id="rect16303" style="fill:#9B99FB;" d="M255.395,459.111l13.346,0.481c0.826,0.03,0.933,0.178,0.239,0.333l-11.802,2.634
					c-0.71,0.157-1.949,0.259-2.774,0.227l-13.344-0.526c-0.804-0.031-0.879-0.183-0.169-0.339l11.799-2.588
					C253.384,459.181,254.59,459.081,255.395,459.111L255.395,459.111z"/>
				<path id="rect16305" style="fill:#9B99FB;" d="M271.64,455.543l13.344,0.43c0.826,0.027,0.949,0.17,0.275,0.32l-11.454,2.555
					c-0.689,0.154-1.912,0.254-2.738,0.225l-13.346-0.474c-0.805-0.031-0.896-0.174-0.207-0.325l11.456-2.512
					C269.646,455.615,270.835,455.517,271.64,455.543L271.64,455.543z"/>
				<path id="rect16307" style="fill:#9B99FB;" d="M287.42,452.077l13.336,0.384c0.826,0.022,0.964,0.16,0.309,0.306l-11.122,2.481
					c-0.669,0.15-1.874,0.248-2.7,0.222l-13.343-0.423c-0.805-0.026-0.913-0.165-0.244-0.312l11.129-2.44
					C285.441,452.15,286.616,452.053,287.42,452.077L287.42,452.077z"/>
				<path id="rect16309" style="fill:#9B99FB;" d="M302.754,448.708l13.324,0.339c0.824,0.023,0.976,0.152,0.34,0.294l-10.804,2.411
					c-0.65,0.144-1.839,0.243-2.664,0.219l-13.335-0.376c-0.804-0.023-0.927-0.156-0.277-0.3l10.815-2.371
					C300.791,448.784,301.95,448.687,302.754,448.708L302.754,448.708z"/>
				<path id="rect16311" style="fill:#9B99FB;" d="M317.66,445.434l13.306,0.296c0.824,0.019,0.99,0.144,0.371,0.282l-10.498,2.342
					c-0.632,0.141-1.805,0.238-2.629,0.218l-13.322-0.333c-0.804-0.02-0.941-0.149-0.308-0.288l10.514-2.306
					C315.712,445.511,316.856,445.416,317.66,445.434L317.66,445.434z"/>
			</g>
			<g id="g16325" transform="matrix(0.95319746,0,0,0.89283218,9.6126614,0.297119)">
				<path id="rect16315" style="fill:#9B99FB;" d="M268.791,459.81l13.825,0.498c0.855,0.031,0.987,0.183,0.293,0.341l-11.798,2.689
					c-0.711,0.162-1.973,0.266-2.83,0.231l-13.828-0.545c-0.834-0.034-0.932-0.187-0.221-0.346l11.801-2.641
					C266.728,459.88,267.957,459.779,268.791,459.81L268.791,459.81z"/>
				<path id="rect16317" style="fill:#9B99FB;" d="M285.032,456.169l13.816,0.446c0.855,0.026,1.003,0.174,0.329,0.327
					l-11.445,2.608c-0.689,0.157-1.934,0.26-2.79,0.23l-13.824-0.491c-0.834-0.03-0.949-0.177-0.259-0.333l11.453-2.563
					C282.987,456.242,284.199,456.142,285.032,456.169L285.032,456.169z"/>
				<path id="rect16319" style="fill:#9B99FB;" d="M300.799,452.635l13.8,0.397c0.854,0.026,1.016,0.164,0.363,0.313l-11.107,2.531
					c-0.668,0.152-1.896,0.254-2.751,0.226l-13.814-0.44c-0.834-0.026-0.964-0.168-0.295-0.318l11.12-2.488
					C298.77,452.709,299.966,452.611,300.799,452.635L300.799,452.635z"/>
				<path id="rect16321" style="fill:#9B99FB;" d="M316.112,449.201l13.781,0.351c0.852,0.022,1.03,0.155,0.394,0.3l-10.783,2.458
					c-0.65,0.148-1.861,0.247-2.715,0.223l-13.797-0.39c-0.833-0.023-0.978-0.16-0.328-0.305l10.8-2.417
					C314.101,449.277,315.281,449.18,316.112,449.201L316.112,449.201z"/>
				<path id="rect16323" style="fill:#9B99FB;" d="M330.992,445.865l13.756,0.307c0.851,0.019,1.041,0.148,0.424,0.288
					l-10.474,2.387c-0.631,0.144-1.826,0.243-2.678,0.221l-13.778-0.345c-0.831-0.019-0.991-0.151-0.36-0.292l10.495-2.349
					c0.619-0.138,1.784-0.234,2.614-0.215V445.865z"/>
			</g>
			<g id="g16289" transform="matrix(0.95319746,0,0,0.89283218,15.340471,0.297119)">
				<path id="rect16174" style="fill:#9B99FB;" d="M282.885,460.534l14.329,0.516c0.887,0.03,1.045,0.187,0.351,0.349l-11.787,2.747
					c-0.71,0.165-1.998,0.27-2.886,0.235l-14.339-0.564c-0.865-0.034-0.988-0.192-0.277-0.355l11.797-2.697
					C280.767,460.605,282.02,460.502,282.885,460.534L282.885,460.534z"/>
				<path id="rect16176" style="fill:#9B99FB;" d="M299.11,456.817l14.311,0.463c0.886,0.03,1.059,0.177,0.387,0.335l-11.427,2.662
					c-0.687,0.161-1.958,0.265-2.845,0.233l-14.327-0.509c-0.864-0.03-1.003-0.182-0.315-0.339l11.443-2.616
					C297.011,456.892,298.246,456.79,299.11,456.817L299.11,456.817z"/>
				<path id="rect16178" style="fill:#9B99FB;" d="M314.854,453.212l14.289,0.411c0.884,0.026,1.073,0.167,0.42,0.319l-11.083,2.582
					c-0.668,0.155-1.92,0.258-2.805,0.231l-14.308-0.455c-0.864-0.026-1.018-0.173-0.35-0.326l11.104-2.539
					c0.654-0.149,1.873-0.249,2.734-0.225V453.212z"/>
				<path id="rect16180" style="fill:#9B99FB;" d="M330.138,449.711l14.261,0.363c0.882,0.023,1.085,0.159,0.452,0.307
					l-10.756,2.506c-0.647,0.151-1.882,0.252-2.766,0.227l-14.285-0.405c-0.862-0.023-1.032-0.164-0.383-0.312l10.78-2.465
					C328.075,449.789,329.277,449.689,330.138,449.711L330.138,449.711z"/>
				<path id="rect16182" style="fill:#9B99FB;" d="M344.981,446.311l14.228,0.318c0.88,0.019,1.096,0.15,0.482,0.293l-10.442,2.434
					c-0.629,0.147-1.846,0.246-2.728,0.224l-14.257-0.357c-0.861-0.022-1.044-0.154-0.414-0.299l10.47-2.394
					C342.936,446.39,344.122,446.293,344.981,446.311L344.981,446.311z"/>
			</g>
			<path id="rect16431" style="fill:#9B99FB;" d="M297.774,396.037l5.761,0.111c0.823,0.015,0.939,0.14,0.259,0.278l-1.058,0.216
				c-0.684,0.139-1.897,0.237-2.721,0.221l-5.763-0.115c-0.814-0.016-0.917-0.141-0.233-0.277l1.059-0.215
				C295.759,396.119,296.96,396.022,297.774,396.037L297.774,396.037z"/>
			<path id="rect16433" style="fill:#9B99FB;" d="M311.504,396.302l5.907,0.114c0.844,0.015,0.978,0.142,0.298,0.282l-1.057,0.218
				c-0.683,0.142-1.912,0.241-2.757,0.225l-5.908-0.118c-0.835-0.015-0.955-0.143-0.273-0.282l1.059-0.217
				C309.453,396.385,310.671,396.285,311.504,396.302L311.504,396.302z"/>
			<path id="rect16435" style="fill:#9B99FB;" d="M325.583,396.573l6.058,0.116c0.865,0.016,1.018,0.145,0.34,0.288l-1.056,0.221
				c-0.681,0.144-1.928,0.244-2.793,0.228l-6.061-0.121c-0.855-0.02-0.993-0.146-0.313-0.287l1.057-0.22
				C323.495,396.656,324.729,396.557,325.583,396.573L325.583,396.573z"/>
			<path id="rect16349" style="fill:#9B99FB;" d="M340.024,396.852l6.214,0.12c0.889,0.018,1.06,0.146,0.383,0.291l-1.053,0.226
				c-0.679,0.145-1.943,0.247-2.832,0.229l-6.217-0.124c-0.878-0.02-1.035-0.147-0.354-0.291l1.055-0.223
				C337.897,396.936,339.147,396.835,340.024,396.852L340.024,396.852z"/>
			<g id="g16616" transform="matrix(1.0169246,0,0,1.0169766,-6.8103502,-19.66682)">
				<path id="rect16586" style="fill:#9B99FB;" d="M104.178,405.359l6.081,0.121c0.557,0.011,0.466,0.109-0.206,0.222l-6.919,1.156
					c-0.679,0.114-1.674,0.195-2.228,0.184l-6.064-0.132c-0.546-0.011-0.44-0.112,0.238-0.224l6.902-1.146
					C102.651,405.429,103.63,405.35,104.178,405.359L104.178,405.359z"/>
				<path id="rect16588" style="fill:#9B99FB;" d="M114.633,405.566l6.227,0.122c0.569,0.012,0.487,0.111-0.185,0.226l-6.939,1.172
					c-0.682,0.115-1.688,0.198-2.257,0.185l-6.21-0.134c-0.559-0.012-0.461-0.113,0.219-0.227l6.923-1.16
					C113.081,405.636,114.072,405.555,114.633,405.566L114.633,405.566z"/>
				<path id="rect16590" style="fill:#9B99FB;" d="M125.339,405.776l6.376,0.126c0.583,0.012,0.511,0.114-0.164,0.229l-6.957,1.187
					c-0.684,0.117-1.704,0.201-2.286,0.188l-6.361-0.138c-0.573-0.011-0.485-0.115,0.197-0.231l6.944-1.174
					C123.761,405.847,124.764,405.764,125.339,405.776L125.339,405.776z"/>
				<path id="rect16592" style="fill:#9B99FB;" d="M136.302,405.993l6.533,0.128c0.597,0.012,0.535,0.115-0.141,0.231l-6.977,1.204
					c-0.686,0.117-1.718,0.202-2.314,0.19l-6.519-0.142c-0.587-0.012-0.508-0.117,0.176-0.234l6.963-1.191
					C134.698,406.064,135.714,405.981,136.302,405.993L136.302,405.993z"/>
				<path id="rect16594" style="fill:#9B99FB;" d="M147.535,406.214l6.694,0.131c0.613,0.012,0.561,0.116-0.117,0.235l-6.993,1.219
					c-0.687,0.119-1.733,0.206-2.345,0.192l-6.68-0.144c-0.602-0.012-0.533-0.119,0.153-0.238l6.979-1.207
					C145.904,406.286,146.933,406.202,147.535,406.214L147.535,406.214z"/>
				<path id="rect16596" style="fill:#9B99FB;" d="M159.047,406.44l6.861,0.134c0.628,0.012,0.588,0.119-0.091,0.238l-7.009,1.237
					c-0.688,0.121-1.749,0.208-2.376,0.195l-6.849-0.149c-0.617-0.015-0.559-0.121,0.129-0.24l6.997-1.223
					C157.387,406.513,158.429,406.428,159.047,406.44L159.047,406.44z"/>
				<path id="rect16598" style="fill:#9B99FB;" d="M170.848,406.673l7.036,0.138c0.643,0.012,0.616,0.121-0.065,0.242l-7.023,1.253
					c-0.691,0.124-1.764,0.211-2.408,0.197l-7.025-0.152c-0.633-0.015-0.586-0.123,0.103-0.245l7.012-1.24
					C169.158,406.746,170.215,406.659,170.848,406.673L170.848,406.673z"/>
				<path id="rect16600" style="fill:#9B99FB;" d="M182.949,406.911l7.217,0.142c0.661,0.012,0.645,0.123-0.037,0.246l-7.035,1.271
					c-0.691,0.125-1.78,0.213-2.439,0.2l-7.207-0.157c-0.649-0.014-0.615-0.125,0.076-0.249l7.026-1.258
					C181.229,406.986,182.299,406.898,182.949,406.911L182.949,406.911z"/>
				<path id="rect16602" style="fill:#9B99FB;" d="M195.361,407.155l7.405,0.146c0.678,0.015,0.675,0.125-0.008,0.25l-7.047,1.29
					c-0.692,0.127-1.796,0.217-2.473,0.203l-7.396-0.16c-0.665-0.014-0.644-0.127,0.048-0.253l7.038-1.275
					C193.611,407.231,194.695,407.142,195.361,407.155L195.361,407.155z"/>
				<path id="rect16604" style="fill:#9B99FB;" d="M208.099,407.406l7.6,0.15c0.695,0.014,0.707,0.126,0.023,0.254l-7.055,1.308
					c-0.693,0.129-1.812,0.22-2.507,0.206l-7.593-0.165c-0.684-0.015-0.675-0.129,0.017-0.256l7.049-1.294
					C206.315,407.482,207.414,407.393,208.099,407.406L208.099,407.406z"/>
				<path id="rect16606" style="fill:#9B99FB;" d="M221.173,407.664l7.802,0.154c0.714,0.014,0.74,0.129,0.056,0.257l-7.061,1.327
					c-0.694,0.131-1.829,0.223-2.543,0.207l-7.799-0.169c-0.701-0.014-0.707-0.131-0.013-0.259l7.057-1.314
					C219.356,407.741,220.47,407.649,221.173,407.664L221.173,407.664z"/>
				<path id="rect16608" style="fill:#9B99FB;" d="M234.597,407.928l8.015,0.158c0.734,0.014,0.774,0.132,0.09,0.262l-7.067,1.347
					c-0.694,0.132-1.846,0.226-2.579,0.21l-8.011-0.174c-0.721-0.014-0.741-0.133-0.047-0.264l7.063-1.333
					C232.745,408.006,233.876,407.914,234.597,407.928L234.597,407.928z"/>
				<path id="rect16610" style="fill:#9B99FB;" d="M248.386,408.2l8.235,0.161c0.754,0.015,0.81,0.134,0.126,0.267l-7.068,1.367
					c-0.695,0.134-1.863,0.23-2.617,0.214l-8.234-0.179c-0.74-0.015-0.776-0.136-0.082-0.269l7.068-1.353
					C246.498,408.278,247.645,408.184,248.386,408.2L248.386,408.2z"/>
				<path id="rect16612" style="fill:#9B99FB;" d="M262.554,408.478l8.464,0.167c0.775,0.015,0.849,0.135,0.164,0.27l-7.068,1.39
					c-0.695,0.136-1.88,0.233-2.655,0.216l-8.464-0.183c-0.762-0.015-0.814-0.138-0.119-0.274l7.069-1.372
					C260.63,408.558,261.793,408.463,262.554,408.478L262.554,408.478z"/>
				<path id="rect16614" style="fill:#9B99FB;" d="M277.118,408.764l8.703,0.172c0.797,0.015,0.889,0.138,0.206,0.275l-7.065,1.412
					c-0.695,0.138-1.897,0.236-2.695,0.219l-8.706-0.188c-0.784-0.015-0.853-0.141-0.158-0.278l7.068-1.394
					C275.156,408.845,276.336,408.749,277.118,408.764L277.118,408.764z"/>
			</g>
			<g id="g16648" transform="matrix(1.0169246,0,0,1.0169766,-6.8103502,-14.883103)">
				<path id="rect16618" style="fill:#9B99FB;" d="M92.204,402.644l6.059,0.135c0.555,0.012,0.451,0.113-0.233,0.229l-7.06,1.18
					c-0.693,0.116-1.698,0.199-2.25,0.185l-6.041-0.148c-0.544-0.014-0.424-0.115,0.267-0.23l7.042-1.168
					C90.67,402.714,91.658,402.633,92.204,402.644L92.204,402.644z"/>
				<path id="rect16620" style="fill:#9B99FB;" d="M102.622,402.875l6.206,0.138c0.567,0.012,0.472,0.116-0.214,0.232l-7.082,1.196
					c-0.696,0.118-1.712,0.201-2.279,0.187l-6.188-0.15c-0.557-0.015-0.446-0.119,0.248-0.234l7.065-1.185
					C101.063,402.946,102.063,402.864,102.622,402.875L102.622,402.875z"/>
				<path id="rect16622" style="fill:#9B99FB;" d="M113.293,403.114l6.356,0.141c0.582,0.011,0.496,0.118-0.192,0.235l-7.103,1.212
					c-0.698,0.119-1.729,0.204-2.309,0.19l-6.34-0.155c-0.57-0.014-0.469-0.12,0.228-0.237l7.087-1.2
					C111.706,403.185,112.719,403.1,113.293,403.114L113.293,403.114z"/>
				<path id="rect16624" style="fill:#9B99FB;" d="M124.223,403.357l6.515,0.145c0.595,0.015,0.52,0.119-0.17,0.238l-7.125,1.229
					c-0.7,0.12-1.743,0.207-2.337,0.192l-6.497-0.158c-0.586-0.015-0.494-0.122,0.205-0.241l7.109-1.216
					C122.61,403.428,123.636,403.343,124.223,403.357L124.223,403.357z"/>
				<path id="rect16626" style="fill:#9B99FB;" d="M135.425,403.605l6.677,0.149c0.611,0.014,0.546,0.122-0.146,0.242l-7.143,1.245
					c-0.702,0.123-1.759,0.209-2.369,0.195l-6.662-0.162c-0.6-0.015-0.518-0.124,0.182-0.245l7.128-1.232
					C133.785,403.677,134.824,403.592,135.425,403.605L135.425,403.605z"/>
				<path id="rect16628" style="fill:#9B99FB;" d="M146.907,403.861l6.846,0.152c0.627,0.015,0.573,0.125-0.12,0.247l-7.162,1.263
					c-0.703,0.124-1.775,0.212-2.4,0.197l-6.832-0.166c-0.616-0.015-0.544-0.126,0.158-0.249l7.148-1.249
					C145.238,403.934,146.292,403.847,146.907,403.861L146.907,403.861z"/>
				<path id="rect16630" style="fill:#9B99FB;" d="M158.682,404.123l7.022,0.157c0.642,0.014,0.601,0.125-0.094,0.25l-7.177,1.281
					c-0.706,0.126-1.791,0.214-2.432,0.199l-7.009-0.17c-0.631-0.015-0.57-0.129,0.133-0.253l7.165-1.268
					C156.983,404.196,158.05,404.108,158.682,404.123L158.682,404.123z"/>
				<path id="rect16632" style="fill:#9B99FB;" d="M170.759,404.391l7.203,0.161c0.66,0.014,0.631,0.127-0.066,0.254l-7.193,1.299
					c-0.707,0.128-1.806,0.218-2.465,0.202l-7.193-0.175c-0.647-0.015-0.599-0.131,0.107-0.256l7.181-1.286
					C169.029,404.466,170.11,404.376,170.759,404.391L170.759,404.391z"/>
				<path id="rect16634" style="fill:#9B99FB;" d="M183.15,404.667l7.394,0.163c0.676,0.015,0.661,0.131-0.037,0.258l-7.206,1.318
					c-0.708,0.13-1.824,0.221-2.5,0.205l-7.383-0.18c-0.665-0.014-0.629-0.132,0.078-0.26l7.196-1.304
					C181.389,404.742,182.485,404.652,183.15,404.667L183.15,404.667z"/>
				<path id="rect16636" style="fill:#9B99FB;" d="M195.87,404.95l7.591,0.169c0.694,0.015,0.692,0.132-0.007,0.262l-7.217,1.338
					c-0.71,0.132-1.841,0.225-2.535,0.207l-7.582-0.184c-0.683-0.015-0.661-0.134,0.048-0.265l7.208-1.323
					C194.075,405.026,195.186,404.934,195.87,404.95L195.87,404.95z"/>
				<path id="rect16638" style="fill:#9B99FB;" d="M208.929,405.24l7.796,0.174c0.714,0.015,0.726,0.134,0.027,0.266l-7.226,1.359
					c-0.711,0.134-1.857,0.228-2.571,0.209l-7.789-0.189c-0.701-0.018-0.692-0.137,0.017-0.269l7.219-1.342
					C207.1,405.317,208.227,405.224,208.929,405.24L208.929,405.24z"/>
				<path id="rect16640" style="fill:#9B99FB;" d="M222.341,405.538l8.01,0.178c0.734,0.015,0.762,0.137,0.06,0.271l-7.232,1.38
					c-0.712,0.135-1.875,0.23-2.608,0.212l-8.005-0.194c-0.72-0.019-0.726-0.14-0.016-0.274l7.228-1.364
					C220.478,405.616,221.621,405.522,222.341,405.538L222.341,405.538z"/>
				<path id="rect16642" style="fill:#9B99FB;" d="M236.124,405.845l8.232,0.183c0.754,0.014,0.798,0.139,0.097,0.275l-7.237,1.401
					c-0.712,0.137-1.893,0.234-2.647,0.216l-8.229-0.2c-0.74-0.019-0.762-0.142-0.051-0.278l7.234-1.384
					C234.224,405.923,235.382,405.828,236.124,405.845L236.124,405.845z"/>
				<path id="rect16644" style="fill:#9B99FB;" d="M250.289,406.16l8.464,0.188c0.776,0.019,0.836,0.142,0.135,0.28l-7.239,1.423
					c-0.712,0.139-1.911,0.237-2.686,0.218l-8.463-0.206c-0.762-0.019-0.8-0.145-0.088-0.283l7.239-1.406
					C248.352,406.238,249.528,406.142,250.289,406.16L250.289,406.16z"/>
				<path id="rect16646" style="fill:#9B99FB;" d="M264.856,406.484l8.706,0.193c0.797,0.019,0.877,0.145,0.176,0.285l-7.239,1.445
					c-0.712,0.142-1.928,0.241-2.726,0.222l-8.707-0.211c-0.784-0.019-0.839-0.148-0.127-0.288l7.239-1.428
					C262.879,406.564,264.073,406.467,264.856,406.484L264.856,406.484z"/>
			</g>
			<path id="rect16650" style="fill:#9B99FB;" d="M74.53,396.66l6.138,0.152c0.562,0.016,0.442,0.121-0.268,0.24l-7.328,1.225
				c-0.72,0.12-1.75,0.205-2.31,0.19l-6.117-0.166c-0.552-0.016-0.416-0.123,0.302-0.242l7.308-1.212
				C72.962,396.73,73.977,396.647,74.53,396.66L74.53,396.66z"/>
			<path id="rect16652" style="fill:#9B99FB;" d="M85.083,396.923l6.287,0.156c0.575,0.016,0.466,0.123-0.247,0.243l-7.353,1.242
				c-0.723,0.122-1.767,0.207-2.34,0.192l-6.268-0.17c-0.564-0.016-0.438-0.125,0.282-0.246l7.333-1.229
				C83.49,396.993,84.517,396.908,85.083,396.923L85.083,396.923z"/>
			<path id="rect16654" style="fill:#9B99FB;" d="M95.895,397.192l6.442,0.16c0.589,0.016,0.489,0.125-0.226,0.247l-7.377,1.259
				c-0.726,0.124-1.783,0.211-2.37,0.194l-6.424-0.174c-0.578-0.015-0.461-0.127,0.262-0.249l7.358-1.245
				c0.713-0.12,1.754-0.206,2.334-0.191V397.192z"/>
			<path id="rect16656" style="fill:#9B99FB;" d="M106.973,397.469l6.604,0.164c0.604,0.015,0.514,0.127-0.203,0.25l-7.4,1.276
				c-0.727,0.126-1.799,0.213-2.401,0.197l-6.584-0.179c-0.594-0.016-0.486-0.129,0.239-0.253l7.382-1.263
				C105.324,397.54,106.378,397.453,106.973,397.469L106.973,397.469z"/>
			<path id="rect16658" style="fill:#9B99FB;" d="M118.328,397.751l6.771,0.169c0.619,0.015,0.54,0.129-0.179,0.254l-7.422,1.295
				c-0.729,0.127-1.815,0.216-2.434,0.199l-6.753-0.183c-0.607-0.016-0.511-0.132,0.217-0.257l7.405-1.28
				C116.652,397.824,117.719,397.736,118.328,397.751L118.328,397.751z"/>
			<path id="rect16660" style="fill:#9B99FB;" d="M129.973,398.041l6.942,0.174c0.636,0.015,0.568,0.13-0.153,0.258l-7.442,1.313
				c-0.731,0.129-1.832,0.22-2.466,0.202l-6.927-0.189c-0.624-0.015-0.537-0.133,0.192-0.261l7.427-1.298
				C128.266,398.114,129.347,398.025,129.973,398.041L129.973,398.041z"/>
			<path id="rect16662" style="fill:#9B99FB;" d="M141.915,398.339l7.123,0.178c0.652,0.015,0.596,0.133-0.127,0.262l-7.462,1.332
				c-0.733,0.131-1.849,0.223-2.499,0.205l-7.108-0.193c-0.64-0.019-0.564-0.136,0.167-0.265l7.446-1.317
				C140.177,398.412,141.274,398.323,141.915,398.339L141.915,398.339z"/>
			<path id="rect16664" style="fill:#9B99FB;" d="M154.168,398.645l7.311,0.182c0.669,0.016,0.626,0.136-0.1,0.267l-7.479,1.352
				c-0.735,0.133-1.866,0.226-2.534,0.207l-7.297-0.197c-0.656-0.02-0.594-0.139,0.141-0.27l7.465-1.336
				C152.399,398.719,153.51,398.628,154.168,398.645L154.168,398.645z"/>
			<path id="rect16666" style="fill:#9B99FB;" d="M166.743,398.957l7.506,0.188c0.687,0.019,0.656,0.138-0.069,0.271l-7.495,1.372
				c-0.736,0.135-1.884,0.228-2.569,0.21l-7.493-0.203c-0.674-0.02-0.624-0.141,0.111-0.274l7.483-1.355
				C164.942,399.032,166.069,398.94,166.743,398.957L166.743,398.957z"/>
			<path id="rect16668" style="fill:#9B99FB;" d="M179.656,399.279l7.707,0.191c0.706,0.02,0.69,0.141-0.037,0.275l-7.509,1.393
				c-0.738,0.137-1.901,0.231-2.606,0.213l-7.696-0.209c-0.693-0.019-0.656-0.143,0.081-0.277l7.498-1.377
				C177.82,399.355,178.961,399.262,179.656,399.279L179.656,399.279z"/>
			<path id="rect16670" style="fill:#9B99FB;" d="M192.916,399.609l7.919,0.197c0.725,0.019,0.724,0.143-0.005,0.28l-7.52,1.414
				c-0.74,0.139-1.92,0.234-2.644,0.216l-7.909-0.215c-0.712-0.019-0.689-0.146,0.049-0.282l7.512-1.397
				c0.729-0.136,1.886-0.23,2.599-0.212V399.609z"/>
			<path id="rect16672" style="fill:#9B99FB;" d="M206.541,399.949l8.138,0.202c0.745,0.019,0.76,0.146,0.03,0.285l-7.53,1.436
				c-0.74,0.142-1.938,0.239-2.683,0.219l-8.13-0.221c-0.732-0.019-0.724-0.147,0.016-0.287l7.523-1.419
				C204.634,400.026,205.809,399.931,206.541,399.949L206.541,399.949z"/>
			<path id="rect16674" style="fill:#9B99FB;" d="M220.545,400.298l8.366,0.208c0.767,0.02,0.797,0.148,0.067,0.29l-7.538,1.459
				c-0.741,0.143-1.956,0.242-2.722,0.221l-8.361-0.226c-0.752-0.02-0.76-0.151-0.02-0.293l7.532-1.441
				C218.6,400.376,219.792,400.279,220.545,400.298L220.545,400.298z"/>
			<path id="rect16676" style="fill:#9B99FB;" d="M234.944,400.656l8.605,0.215c0.788,0.019,0.836,0.15,0.106,0.294l-7.543,1.483
				c-0.741,0.146-1.975,0.246-2.763,0.225l-8.603-0.233c-0.773-0.022-0.798-0.154-0.057-0.298l7.539-1.465
				C232.959,400.735,234.169,400.637,234.944,400.656L234.944,400.656z"/>
			<path id="rect16678" style="fill:#9B99FB;" d="M251.041,401.058c-1.511-0.038-3.837,0.151-5.222,0.425l-10.592,2.089
				l-13.366-0.37c-0.774-0.022-1.998,0.078-2.746,0.224l-7.724,1.5c-0.76,0.147-0.749,0.285,0.024,0.309l14.794,0.444l2.466,0.073
				l6.384,0.192c0.811,0.022,2.077-0.079,2.838-0.23l5.271-1.054l2.463-0.491l11.944-2.386c1.385-0.277,1.26-0.53-0.273-0.568
				L251.041,401.058z"/>
			<path id="rect16682" style="fill:#9B99FB;" d="M61.851,398.766l6.111,0.169c0.559,0.016,0.427,0.126-0.299,0.247l-7.48,1.25
				c-0.735,0.123-1.776,0.209-2.333,0.192l-6.089-0.184c-0.549-0.015-0.399-0.127,0.333-0.249l7.459-1.237
				C60.276,398.834,61.3,398.75,61.851,398.766L61.851,398.766z"/>
			<path id="rect16684" style="fill:#9B99FB;" d="M72.36,399.057l6.262,0.174c0.572,0.015,0.449,0.127-0.279,0.25l-7.508,1.268
				c-0.737,0.124-1.792,0.211-2.363,0.193l-6.239-0.188c-0.563-0.015-0.422-0.13,0.314-0.253l7.487-1.254
				C70.758,399.126,71.795,399.041,72.36,399.057L72.36,399.057z"/>
			<path id="rect16686" style="fill:#9B99FB;" d="M83.127,399.355l6.418,0.178c0.587,0.016,0.473,0.13-0.258,0.255l-7.534,1.285
				c-0.74,0.126-1.809,0.214-2.395,0.196l-6.396-0.191c-0.576-0.02-0.444-0.132,0.294-0.257l7.514-1.272
				C81.498,399.426,82.549,399.34,83.127,399.355L83.127,399.355z"/>
			<path id="rect16688" style="fill:#9B99FB;" d="M94.164,399.661l6.579,0.183c0.603,0.016,0.498,0.132-0.234,0.258l-7.561,1.304
				c-0.742,0.129-1.825,0.218-2.426,0.199l-6.559-0.197c-0.591-0.018-0.469-0.134,0.271-0.261l7.541-1.289
				C92.507,399.732,93.572,399.645,94.164,399.661L94.164,399.661z"/>
			<path id="rect16690" style="fill:#9B99FB;" d="M105.48,399.975l6.748,0.188c0.617,0.019,0.525,0.134-0.211,0.262l-7.585,1.323
				c-0.745,0.13-1.842,0.22-2.458,0.201l-6.729-0.202c-0.605-0.019-0.494-0.136,0.25-0.265l7.565-1.308
				c0.733-0.127,1.812-0.215,2.419-0.198V399.975z"/>
			<path id="rect16692" style="fill:#9B99FB;" d="M117.086,400.297l6.922,0.191c0.634,0.02,0.552,0.137-0.186,0.267l-7.607,1.342
				c-0.748,0.132-1.86,0.224-2.492,0.204l-6.904-0.207c-0.621-0.019-0.52-0.139,0.226-0.269l7.591-1.327
				C115.37,400.369,116.463,400.28,117.086,400.297L117.086,400.297z"/>
			<path id="rect16694" style="fill:#9B99FB;" d="M128.993,400.627l7.104,0.196c0.65,0.02,0.58,0.139-0.159,0.271l-7.63,1.361
				c-0.75,0.134-1.877,0.227-2.525,0.206l-7.087-0.212c-0.638-0.02-0.548-0.142,0.2-0.274l7.612-1.346
				c0.738-0.131,1.846-0.222,2.485-0.204V400.627z"/>
			<path id="rect16696" style="fill:#9B99FB;" d="M141.213,400.966l7.293,0.202c0.668,0.018,0.609,0.141-0.132,0.274l-7.649,1.383
				c-0.752,0.136-1.895,0.23-2.561,0.209l-7.277-0.218c-0.655-0.02-0.577-0.143,0.174-0.278l7.634-1.366
				C139.434,401.039,140.557,400.947,141.213,400.966L141.213,400.966z"/>
			<path id="rect16698" style="fill:#9B99FB;" d="M153.759,401.314l7.489,0.207c0.686,0.02,0.641,0.144-0.102,0.28l-7.669,1.403
				c-0.753,0.138-1.912,0.232-2.597,0.212l-7.475-0.225c-0.673-0.018-0.607-0.146,0.145-0.282l7.654-1.388
				C151.947,401.387,153.085,401.294,153.759,401.314L153.759,401.314z"/>
			<path id="rect16700" style="fill:#9B99FB;" d="M166.644,401.671l7.693,0.213c0.705,0.018,0.674,0.146-0.07,0.284l-7.685,1.425
				c-0.756,0.141-1.932,0.236-2.635,0.216l-7.681-0.231c-0.691-0.019-0.639-0.148,0.115-0.287l7.672-1.408
				C164.797,401.745,165.951,401.651,166.644,401.671L166.644,401.671z"/>
			<path id="rect16702" style="fill:#9B99FB;" d="M179.881,402.037l7.906,0.22c0.725,0.019,0.708,0.148-0.037,0.289l-7.7,1.447
				c-0.757,0.143-1.95,0.24-2.673,0.218l-7.895-0.236c-0.711-0.023-0.673-0.152,0.083-0.293l7.688-1.431
				C177.999,402.113,179.17,402.018,179.881,402.037L179.881,402.037z"/>
			<path id="rect16704" style="fill:#9B99FB;" d="M193.487,402.414l8.128,0.226c0.744,0.02,0.744,0.152-0.003,0.295l-7.712,1.471
				c-0.759,0.145-1.969,0.243-2.713,0.221l-8.118-0.244c-0.73-0.022-0.708-0.154,0.05-0.297l7.702-1.453
				C191.567,402.491,192.755,402.395,193.487,402.414L193.487,402.414z"/>
			<path id="rect16706" style="fill:#9B99FB;" d="M207.474,402.803l8.359,0.232c0.766,0.022,0.782,0.154,0.034,0.299l-7.722,1.495
				c-0.76,0.147-1.988,0.247-2.754,0.224l-8.352-0.25c-0.751-0.023-0.744-0.158,0.015-0.303l7.715-1.476
				C205.517,402.88,206.722,402.781,207.474,402.803L207.474,402.803z"/>
			<g id="g16744" transform="matrix(1.0169246,0,0,1.0169766,-6.8103502,-0.531947)">
				<path id="rect16714" style="fill:#9B99FB;" d="M54.792,394.744l5.981,0.183c0.547,0.015,0.402,0.129-0.325,0.25l-7.511,1.256
					c-0.739,0.123-1.772,0.208-2.317,0.19l-5.957-0.197c-0.537-0.019-0.375-0.131,0.36-0.253l7.488-1.243
					C53.237,394.812,54.254,394.728,54.792,394.744L54.792,394.744z"/>
				<path id="rect16716" style="fill:#9B99FB;" d="M65.077,395.06l6.13,0.188c0.561,0.018,0.425,0.13-0.305,0.253l-7.54,1.273
					c-0.741,0.125-1.789,0.21-2.347,0.192l-6.107-0.202c-0.55-0.019-0.398-0.132,0.341-0.256l7.518-1.26
					C63.496,395.128,64.525,395.043,65.077,395.06L65.077,395.06z"/>
				<path id="rect16718" style="fill:#9B99FB;" d="M75.62,395.384l6.284,0.192c0.574,0.019,0.448,0.132-0.285,0.258l-7.57,1.291
					c-0.743,0.127-1.804,0.213-2.378,0.195l-6.261-0.207c-0.564-0.019-0.42-0.134,0.322-0.26l7.547-1.277
					C74.01,395.452,75.053,395.367,75.62,395.384L75.62,395.384z"/>
				<path id="rect16720" style="fill:#9B99FB;" d="M86.427,395.715l6.445,0.198c0.59,0.018,0.473,0.135-0.263,0.261l-7.597,1.31
					c-0.747,0.13-1.822,0.217-2.409,0.198l-6.424-0.212c-0.578-0.019-0.443-0.137,0.302-0.265l7.576-1.295
					C84.79,395.783,85.847,395.697,86.427,395.715L86.427,395.715z"/>
				<path id="rect16722" style="fill:#9B99FB;" d="M97.512,396.055l6.611,0.203c0.605,0.019,0.498,0.137-0.24,0.266l-7.624,1.33
					c-0.749,0.131-1.839,0.22-2.442,0.2l-6.591-0.218c-0.593-0.019-0.468-0.139,0.279-0.269l7.603-1.315
					C95.845,396.125,96.916,396.037,97.512,396.055L97.512,396.055z"/>
				<path id="rect16724" style="fill:#9B99FB;" d="M108.883,396.404l6.785,0.208c0.62,0.019,0.525,0.139-0.216,0.27l-7.65,1.349
					c-0.751,0.133-1.856,0.224-2.476,0.203l-6.764-0.224c-0.609-0.018-0.495-0.142,0.255-0.273l7.63-1.334
					C107.187,396.475,108.272,396.385,108.883,396.404L108.883,396.404z"/>
				<path id="rect16726" style="fill:#9B99FB;" d="M120.552,396.762l6.964,0.213c0.638,0.019,0.553,0.142-0.19,0.275l-7.673,1.37
					c-0.755,0.134-1.875,0.226-2.51,0.205l-6.945-0.23c-0.625-0.019-0.521-0.144,0.23-0.277l7.655-1.353
					C118.826,396.833,119.925,396.743,120.552,396.762L120.552,396.762z"/>
				<path id="rect16728" style="fill:#9B99FB;" d="M132.533,397.13l7.15,0.219c0.655,0.019,0.583,0.145-0.162,0.279l-7.696,1.39
					c-0.757,0.136-1.893,0.229-2.546,0.207l-7.133-0.235c-0.642-0.023-0.55-0.147,0.205-0.282l7.679-1.374
					C130.773,397.201,131.889,397.11,132.533,397.13L132.533,397.13z"/>
				<path id="rect16730" style="fill:#9B99FB;" d="M144.836,397.507l7.346,0.225c0.672,0.019,0.614,0.148-0.135,0.284l-7.717,1.413
					c-0.759,0.138-1.911,0.232-2.582,0.21l-7.329-0.243c-0.66-0.022-0.58-0.15,0.178-0.287l7.701-1.395
					C143.044,397.578,144.175,397.486,144.836,397.507L144.836,397.507z"/>
				<path id="rect16732" style="fill:#9B99FB;" d="M157.475,397.894l7.549,0.232c0.691,0.022,0.645,0.15-0.104,0.289l-7.736,1.435
					c-0.761,0.141-1.93,0.236-2.62,0.213l-7.534-0.25c-0.678-0.022-0.612-0.153,0.148-0.292l7.722-1.417
					C155.648,397.967,156.796,397.874,157.475,397.894L157.475,397.894z"/>
				<path id="rect16734" style="fill:#9B99FB;" d="M170.465,398.293l7.76,0.238c0.711,0.023,0.68,0.153-0.071,0.294l-7.754,1.458
					c-0.762,0.144-1.949,0.24-2.659,0.217l-7.747-0.256c-0.696-0.023-0.643-0.156,0.117-0.297l7.741-1.44
					C168.602,398.367,169.766,398.271,170.465,398.293L170.465,398.293z"/>
				<path id="rect16736" style="fill:#9B99FB;" d="M183.819,398.703l7.98,0.245c0.731,0.022,0.715,0.156-0.036,0.299l-7.769,1.482
					c-0.764,0.146-1.969,0.244-2.699,0.22l-7.969-0.264c-0.717-0.022-0.678-0.158,0.085-0.302l7.757-1.463
					C181.919,398.777,183.1,398.681,183.819,398.703L183.819,398.703z"/>
				<path id="rect16738" style="fill:#9B99FB;" d="M197.553,399.123l8.211,0.252c0.752,0.023,0.753,0.16-0.001,0.305l-7.781,1.506
					c-0.765,0.148-1.988,0.248-2.74,0.223l-8.2-0.272c-0.738-0.022-0.715-0.161,0.05-0.307l7.772-1.487
					C195.615,399.198,196.815,399.101,197.553,399.123L197.553,399.123z"/>
				<path id="rect16740" style="fill:#9B99FB;" d="M211.684,399.557l8.451,0.259c0.774,0.022,0.792,0.162,0.037,0.31l-7.792,1.532
					c-0.766,0.151-2.007,0.252-2.781,0.226l-8.443-0.279c-0.759-0.026-0.752-0.165,0.013-0.313l7.784-1.512
					C209.707,399.633,210.924,399.534,211.684,399.557L211.684,399.557z"/>
				<path id="rect16742" style="fill:#9B99FB;" d="M226.23,400.003l8.701,0.267c0.797,0.023,0.833,0.166,0.078,0.317l-7.799,1.558
					c-0.767,0.153-2.028,0.255-2.825,0.229l-8.696-0.288c-0.782-0.027-0.792-0.169-0.026-0.32l7.794-1.537
					C224.212,400.08,225.447,399.98,226.23,400.003L226.23,400.003z"/>
			</g>
			<path id="rect16541" style="fill:#9B99FB;" d="M35.697,403.108l6.051,0.204c0.554,0.02,0.392,0.136-0.364,0.263l-7.801,1.304
				c-0.767,0.128-1.828,0.216-2.38,0.195l-6.024-0.219c-0.542-0.019-0.363-0.138,0.401-0.265l7.774-1.29
				C34.108,403.176,35.152,403.09,35.697,403.108L35.697,403.108z"/>
			<path id="rect16543" style="fill:#9B99FB;" d="M46.103,403.46l6.203,0.209c0.567,0.02,0.414,0.138-0.345,0.267l-7.834,1.322
				c-0.77,0.131-1.846,0.219-2.411,0.198l-6.177-0.225c-0.557-0.018-0.386-0.141,0.382-0.268l7.808-1.309
				C44.486,403.527,45.544,403.44,46.103,403.46L46.103,403.46z"/>
			<path id="rect16545" style="fill:#9B99FB;" d="M56.771,403.82l6.36,0.215c0.582,0.018,0.438,0.141-0.324,0.27l-7.865,1.342
				c-0.773,0.132-1.863,0.221-2.443,0.2l-6.335-0.23c-0.571-0.019-0.408-0.143,0.361-0.273l7.842-1.327
				C55.126,403.889,56.198,403.801,56.771,403.82L56.771,403.82z"/>
			<path id="rect16547" style="fill:#9B99FB;" d="M67.71,404.19c-0.587-0.02-1.673,0.068-2.436,0.199l-7.873,1.347
				c-0.773,0.132-0.926,0.256-0.341,0.276l84.915,3.085l2.354,0.086l5.504,0.199c0.72,0.026,1.939-0.072,2.733-0.223l8.077-1.519
				c0.781-0.146,0.829-0.284,0.108-0.309l-5.515-0.186l-2.359-0.08L67.71,404.19z"/>
			<path id="rect16563" style="fill:#9B99FB;" d="M166.429,407.524l8.1,0.274c0.742,0.026,0.71,0.165-0.073,0.315l-8.096,1.544
				c-0.796,0.152-2.035,0.253-2.776,0.226l-8.085-0.294c-0.728-0.026-0.672-0.168,0.123-0.317l8.081-1.524
				c0.783-0.148,1.998-0.247,2.727-0.222V407.524z"/>
			<path id="rect16565" style="fill:#9B99FB;" d="M180.369,407.996l8.337,0.281c0.764,0.026,0.748,0.169-0.038,0.321l-8.111,1.569
				c-0.798,0.155-2.056,0.257-2.818,0.229l-8.323-0.303c-0.749-0.026-0.709-0.172,0.088-0.324l8.099-1.55
				C178.386,408.071,179.619,407.971,180.369,407.996L180.369,407.996z"/>
			<path id="rect16567" style="fill:#9B99FB;" d="M194.719,408.48l8.583,0.29c0.786,0.026,0.788,0.172,0.001,0.327l-8.125,1.597
				c-0.8,0.157-2.077,0.261-2.862,0.233l-8.572-0.312c-0.771-0.026-0.748-0.176,0.051-0.331l8.114-1.576
				C192.695,408.556,193.947,408.454,194.719,408.48L194.719,408.48z"/>
			<path id="rect16459" style="fill:#9B99FB;" d="M209.493,408.979l8.841,0.299c0.811,0.026,0.83,0.176,0.043,0.333l-8.136,1.625
				c-0.801,0.16-2.099,0.266-2.908,0.236l-8.832-0.321c-0.795-0.03-0.788-0.179,0.011-0.337l8.128-1.603
				C207.427,409.057,208.698,408.953,209.493,408.979L209.493,408.979z"/>
		</g>
	</g>
	<g id="g1370">
		<path id="path17985" style="fill:#9B99FB;" d="M444.278,392.197c-7.32,0.016-15.877,1.203-25.77,3.818
			c-37.246,9.846-34.523,28.291-34.523,28.291h0.002c-0.682,1.435,4.762,2.685,15.217,3.143c15.142,0.664,34.367-0.603,42.617-2.816
			l33.918-9.102c2.58-0.692,3.525-1.377,3.047-1.994C475.305,401.071,464.515,392.154,444.278,392.197L444.278,392.197z"/>
		<path id="path18221" style="fill:#362E95;" d="M461.791,394.746c-8.275-2.385-17.999,2.398-19.901,2.471
			c-1.901,0.071-5.005-1.046-5.466-2.528c-0.462-1.482,6.174-4.425,11.506-4.87c5.331-0.443,8.554-0.43,11.506,1.197
			C462.388,392.641,461.791,394.746,461.791,394.746L461.791,394.746z"/>
		<path id="path21152" style="fill:#7069D4;" d="M468.762,398.84c-2.705,0.373-5.733,1.013-9.121,2.033
			c-19.583,5.898-23.268,13.373-36.932,16.596c-11.758,2.773-28.778-1.342-31.797-7.873c-7.95,7.69-6.928,14.711-6.928,14.711h0.002
			c-0.682,1.435,4.762,2.685,15.217,3.143c15.142,0.664,34.367-0.603,42.617-2.816l33.918-9.102c2.58-0.692,3.525-1.377,3.047-1.994
			C477.144,407.659,473.877,402.572,468.762,398.84L468.762,398.84z"/>
	</g>
	<g id="layer11">
		<path id="rect1905" style="opacity:0.3962;fill:none;stroke:#000000;stroke-width:0.1323;enable-background:new    ;" d="
			M160.053,91.426c-0.714,0.005-1.14,0.359-1.355,1.125l-57.618,204.618c-0.217,0.77,0.012,1.121,0.726,1.119l281.583-0.775
			c0.723-0.002,1.153-0.357,1.369-1.133l57.217-205.865c0.214-0.771-0.019-1.122-0.741-1.116L160.053,91.426z"/>
		<g id="g38825" transform="matrix(0.97654569,0,0,0.97654569,0.98862603,-0.26117052)">
			<path id="path38819" style="fill:#E0385D;" d="M224.995,116.355l-6.735,12.676c5.131,1.579,9.743,4.073,13.675,7.391l9.7-11.079
				C236.85,121.307,231.238,118.276,224.995,116.355L224.995,116.355z M211.001,114.036c-6.919-0.305-14.17,0.547-21.5,2.527
				l-0.416,12.631c6.026-1.627,11.987-2.326,17.674-2.073L211.001,114.036z M250.401,135.276l-11.265,9.313
				c2.855,4.373,4.875,9.398,5.988,14.9l12.57-6.087C256.337,146.707,253.878,140.594,250.401,135.276z M174.072,122.379
				c-7.205,3.495-14.16,7.995-20.624,13.339l5.997,9.219c5.314-4.394,11.033-8.093,16.956-10.966L174.072,122.379z M258.893,168.25
				l-12.788,3.442c-0.19,5.996-1.31,12.208-3.319,18.417l12.07,0.554C257.3,183.107,258.662,175.547,258.893,168.25L258.893,168.25z
				 M140.675,148.146c-5.569,6.361-10.374,13.304-14.248,20.586l10.803,3.347c3.184-5.987,7.134-11.695,11.712-16.924
				L140.675,148.146z M131.714,185.008l-11.997-0.55c-2.447,7.53-3.819,15.066-4.068,22.344l12.724-3.425
				C128.577,197.393,129.704,191.198,131.714,185.008z M237.233,203.07c-3.188,6.005-7.147,11.73-11.737,16.975l8.319,7.053
				c5.588-6.383,10.407-13.351,14.287-20.66L237.233,203.07z M214.963,230.289c-5.33,4.403-11.066,8.107-17.007,10.98l2.341,11.657
				c7.231-3.496,14.212-8.002,20.699-13.362L214.963,230.289z M129.32,215.566l-12.523,6.064c1.334,6.69,3.767,12.805,7.215,18.133
				l11.243-9.294C132.419,226.091,130.418,221.065,129.32,215.566z M142.424,238.653l-9.694,11.072
				c4.765,4.057,10.36,7.112,16.59,9.058l6.742-12.691C150.941,244.495,146.341,241.986,142.424,238.653z M185.24,246.037
				c-6.036,1.618-12.005,2.305-17.697,2.037l-4.255,13.124c6.926,0.329,14.19-0.505,21.535-2.473L185.24,246.037z"/>
			<path id="path38821" style="fill:#E0385D;" d="M197.531,129.805c-5.697,0.66-11.524,2.225-17.279,4.64l0.382,2.939
				c5.437-2.281,10.942-3.759,16.323-4.383L197.531,129.805z M209.246,129.732l-1.186,3.106c5.051,0.579,9.745,2.016,13.917,4.261
				l2.017-2.922C219.57,131.822,214.596,130.323,209.246,129.732z M168.372,140.868c-5.457,3.542-10.586,7.796-15.208,12.612
				l1.88,1.885c4.367-4.55,9.211-8.568,14.366-11.914L168.372,140.868z M232.323,140.485l-2.408,2.51
				c3.31,3.306,5.928,7.295,7.761,11.828l2.846-1.844C238.583,148.192,235.818,143.978,232.323,140.485z M144.192,164.347
				c-3.754,5.47-6.809,11.27-9.059,17.197l2.878,0.332c2.125-5.599,5.011-11.077,8.557-16.244L144.192,164.347z M243.429,163.8
				l-3.082,1.301c0.678,5.153,0.514,10.63-0.488,16.24l2.996-0.352C243.932,175.055,244.126,169.257,243.429,163.8z
				 M134.671,193.751l-3.074,0.362c-1.085,5.924-1.29,11.714-0.608,17.168l3.109-1.313
				C133.453,204.816,133.646,199.347,134.671,193.751z M236.521,193.263c-2.143,5.618-5.052,11.113-8.625,16.292l2.362,1.277
				c3.762-5.486,6.821-11.302,9.069-17.245L236.521,193.263z M136.814,220.193l-2.95,1.91c1.923,4.793,4.673,9.016,8.154,12.521
				l2.5-2.606C141.23,228.708,138.631,224.72,136.814,220.193L136.814,220.193z M219.443,219.905
				c-4.387,4.572-9.256,8.607-14.437,11.962l1.005,2.499c5.473-3.547,10.617-7.809,15.252-12.638L219.443,219.905z M152.367,238.004
				l-2.042,2.959c4.418,2.37,9.388,3.885,14.737,4.492l1.224-3.208C161.234,241.674,156.539,240.243,152.367,238.004
				L152.367,238.004z M193.718,237.876c-5.452,2.299-10.974,3.791-16.373,4.424l-0.559,3.112c5.705-0.649,11.544-2.207,17.312-4.618
				L193.718,237.876z"/>
			<path id="path38823" style="fill:#E0385D;" d="M206.18,136.269c-4.748-0.495-9.768-0.18-14.886,0.933l-0.254,3.111
				c4.801-1.044,9.511-1.34,13.966-0.876L206.18,136.269z M215.71,138.471l-1.764,3.033c3.974,1.485,7.506,3.687,10.473,6.529
				l2.453-2.604C223.711,142.4,219.947,140.053,215.71,138.471z M180.467,140.831c-5.08,2.212-10.025,5.143-14.661,8.692l1.32,2.349
				c4.35-3.33,8.989-6.08,13.756-8.155L180.467,140.831z M232.481,152.865l-2.799,2.144c2.061,3.66,3.442,7.809,4.094,12.305
				l3.071-1.333C236.151,161.189,234.679,156.766,232.481,152.865L232.481,152.865z M156.528,157.814
				c-4.049,4.32-7.592,9.079-10.503,14.112l2.54,0.966c2.732-4.723,6.056-9.189,9.856-13.243L156.528,157.814z M237.223,176.528
				l-3.093,0.681c-0.41,4.85-1.556,9.831-3.398,14.771l2.871,0.292C235.566,187.008,236.787,181.698,237.223,176.528z
				 M143.712,183.129l-2.861-0.292c-1.965,5.255-3.191,10.556-3.635,15.718l3.087-0.681
				C140.719,193.031,141.869,188.058,143.712,183.129z M225.944,202.266c-2.752,4.735-6.099,9.209-9.924,13.266l1.899,1.841
				c4.077-4.323,7.645-9.091,10.579-14.137L225.944,202.266z M140.635,207.762l-3.063,1.33c0.685,4.792,2.145,9.217,4.33,13.123
				l2.798-2.141C142.649,216.41,141.278,212.258,140.635,207.762L140.635,207.762z M207.32,223.384
				c-4.37,3.344-9.031,6.102-13.819,8.178l0.418,2.913c5.106-2.215,10.075-5.156,14.734-8.721L207.32,223.384z M149.939,227.065
				l-2.453,2.603c3.153,3.04,6.91,5.399,11.141,6.994l1.767-3.037C156.424,232.129,152.898,229.917,149.939,227.065z
				 M183.308,234.894c-4.815,1.057-9.539,1.362-14.007,0.904l-1.177,3.177c4.762,0.488,9.797,0.164,14.929-0.963L183.308,234.894z"
				/>
		</g>
		<g id="g36477" transform="matrix(0.97654569,0,0,0.97654569,-3.0493362,-3.0574104)">
			<path id="circle2120" style="fill:#FFD7E7;" d="M213.501,108.397l-6.735,12.676c5.131,1.58,9.743,4.072,13.675,7.391l9.7-11.079
				C225.357,113.348,219.744,110.317,213.501,108.397L213.501,108.397z M199.508,106.078c-6.919-0.305-14.17,0.547-21.5,2.528
				l-0.416,12.631c6.026-1.626,11.987-2.325,17.674-2.073L199.508,106.078z M238.908,127.316l-11.265,9.313
				c2.855,4.373,4.875,9.398,5.988,14.9l12.57-6.087C244.844,138.749,242.385,132.636,238.908,127.316z M162.578,114.42
				c-7.205,3.496-14.16,7.995-20.624,13.339l5.997,9.219c5.314-4.395,11.033-8.093,16.956-10.966L162.578,114.42z M247.401,160.292
				l-12.788,3.442c-0.191,5.996-1.311,12.207-3.32,18.417l12.07,0.554C245.807,175.148,247.169,167.588,247.401,160.292
				L247.401,160.292z M129.182,140.187c-5.568,6.361-10.374,13.304-14.248,20.586l10.803,3.347
				c3.184-5.987,7.134-11.695,11.713-16.924L129.182,140.187z M120.222,177.048l-11.998-0.549
				c-2.447,7.53-3.819,15.066-4.068,22.343l12.724-3.425C117.084,189.435,118.211,183.239,120.222,177.048z M225.741,195.112
				c-3.189,6.005-7.147,11.73-11.738,16.974l8.319,7.054c5.588-6.383,10.407-13.351,14.287-20.66L225.741,195.112z M203.469,222.331
				c-5.33,4.403-11.066,8.107-17.006,10.98l2.34,11.657c7.231-3.496,14.212-8.002,20.7-13.362L203.469,222.331z M117.828,207.607
				l-12.523,6.064c1.333,6.69,3.766,12.805,7.214,18.133l11.243-9.294C120.926,218.132,118.925,213.105,117.828,207.607z
				 M130.931,230.695l-9.693,11.072c4.764,4.057,10.359,7.112,16.589,9.058l6.742-12.691
				C139.448,236.536,134.848,234.027,130.931,230.695z M173.748,238.078c-6.037,1.619-12.006,2.305-17.698,2.037l-4.255,13.125
				c6.926,0.328,14.19-0.506,21.536-2.474L173.748,238.078z"/>
			<path id="path2030" style="fill:#FFD7E7;" d="M186.038,121.846c-5.697,0.66-11.524,2.225-17.279,4.64l0.382,2.939
				c5.437-2.281,10.942-3.759,16.323-4.383L186.038,121.846z M197.753,121.773l-1.186,3.106c5.051,0.578,9.745,2.016,13.917,4.261
				l2.017-2.922C208.076,123.863,203.102,122.364,197.753,121.773z M156.878,132.91c-5.457,3.542-10.585,7.795-15.208,12.612
				l1.88,1.885c4.367-4.55,9.212-8.568,14.366-11.914L156.878,132.91z M220.83,132.526l-2.408,2.51
				c3.31,3.306,5.928,7.295,7.761,11.828l2.846-1.844C227.091,140.233,224.325,136.02,220.83,132.526z M132.699,156.388
				c-3.754,5.47-6.809,11.27-9.059,17.197l2.879,0.333c2.125-5.599,5.01-11.077,8.556-16.244L132.699,156.388z M231.937,155.841
				l-3.083,1.301c0.678,5.153,0.514,10.63-0.487,16.24l2.995-0.352C232.439,167.096,232.633,161.299,231.937,155.841z
				 M123.178,185.792l-3.074,0.362c-1.085,5.924-1.29,11.714-0.608,17.168l3.109-1.312
				C121.96,196.858,122.154,191.388,123.178,185.792z M225.028,185.304c-2.143,5.618-5.052,11.113-8.624,16.292l2.361,1.277
				c3.762-5.486,6.821-11.302,9.07-17.245L225.028,185.304z M125.321,212.234l-2.95,1.91c1.924,4.793,4.673,9.016,8.154,12.521
				l2.5-2.607C129.737,220.749,127.139,216.761,125.321,212.234L125.321,212.234z M207.949,211.946
				c-4.387,4.572-9.256,8.607-14.437,11.962l1.005,2.499c5.473-3.547,10.617-7.809,15.253-12.638L207.949,211.946z M140.873,230.046
				l-2.042,2.958c4.418,2.37,9.388,3.885,14.737,4.492l1.224-3.208C149.74,233.715,145.046,232.284,140.873,230.046L140.873,230.046
				z M182.226,229.917c-5.453,2.299-10.975,3.791-16.373,4.424l-0.56,3.112c5.705-0.649,11.544-2.207,17.312-4.618L182.226,229.917z
				"/>
			<path id="circle2116" style="fill:#FFD7E7;" d="M194.687,128.31c-4.748-0.495-9.768-0.18-14.886,0.933l-0.254,3.112
				c4.801-1.044,9.511-1.34,13.966-0.876L194.687,128.31z M204.217,130.512l-1.764,3.033c3.974,1.485,7.506,3.687,10.473,6.529
				l2.453-2.604C212.217,134.441,208.453,132.095,204.217,130.512z M168.975,132.872c-5.081,2.212-10.026,5.144-14.662,8.693
				l1.32,2.349c4.35-3.33,8.989-6.081,13.756-8.155L168.975,132.872z M220.988,144.907l-2.799,2.143
				c2.061,3.66,3.442,7.81,4.094,12.306l3.071-1.333C224.658,153.23,223.186,148.807,220.988,144.907L220.988,144.907z
				 M145.035,149.855c-4.05,4.32-7.593,9.079-10.504,14.112l2.54,0.966c2.732-4.723,6.056-9.189,9.856-13.243L145.035,149.855z
				 M225.73,168.569l-3.093,0.682c-0.41,4.85-1.556,9.831-3.398,14.771l2.871,0.293C224.074,179.049,225.294,173.739,225.73,168.569
				z M132.219,175.169l-2.86-0.292c-1.966,5.255-3.192,10.556-3.635,15.718l3.086-0.681
				C129.226,185.072,130.376,180.099,132.219,175.169z M214.45,194.307c-2.752,4.735-6.099,9.209-9.924,13.267l1.899,1.841
				c4.077-4.323,7.645-9.091,10.579-14.137L214.45,194.307z M129.142,199.804l-3.063,1.329c0.685,4.792,2.145,9.217,4.33,13.122
				l2.798-2.141C131.156,208.451,129.785,204.299,129.142,199.804L129.142,199.804z M195.827,215.425
				c-4.369,3.344-9.03,6.102-13.819,8.178l0.418,2.912c5.106-2.215,10.075-5.156,14.734-8.721L195.827,215.425z M138.446,219.106
				l-2.453,2.603c3.153,3.04,6.911,5.399,11.142,6.994l1.766-3.037C144.931,224.171,141.405,221.958,138.446,219.106z
				 M171.815,226.936c-4.814,1.057-9.538,1.362-14.006,0.903l-1.178,3.177c4.762,0.489,9.798,0.164,14.929-0.963L171.815,226.936z"
				/>
		</g>
		<path id="rect5613" style="fill:#FFE9B1;" d="M267.476,142.842l139.142-0.822c0.147-0.001,0.231,0.126,0.188,0.283l-0.709,2.55
			c-0.044,0.158-0.198,0.286-0.346,0.286l-139.145,0.813c-0.146,0.001-0.229-0.125-0.186-0.282l0.712-2.542
			C267.176,142.971,267.329,142.843,267.476,142.842L267.476,142.842z"/>
		<path id="path5933" style="fill:#FFFFFF;" d="M155.349,103.391l-3.786,13.448l2.448-0.016l11.605-13.503L155.349,103.391z
			 M175.435,103.251l-11.61,13.505l9.246-0.062l11.61-13.508L175.435,103.251z M194.507,103.118l-11.615,13.511l9.254-0.062
			l11.615-13.514L194.507,103.118z M213.597,102.985l-11.619,13.517l9.261-0.062l11.62-13.52L213.597,102.985z M232.7,102.853
			l-11.624,13.522l9.27-0.062l11.624-13.525L232.7,102.853z M251.821,102.72l-11.629,13.528l9.276-0.062l11.629-13.53
			L251.821,102.72z M270.957,102.586l-11.633,13.534l9.284-0.062l11.634-13.536L270.957,102.586z M290.109,102.453l-11.638,13.539
			l9.292-0.061l11.638-13.542L290.109,102.453z M309.276,102.32l-11.643,13.544l9.299-0.062l11.644-13.547L309.276,102.32z
			 M328.458,102.187l-11.648,13.55l9.309-0.062l11.648-13.553L328.458,102.187z M347.658,102.053l-11.652,13.556l9.315-0.062
			l11.652-13.559L347.658,102.053z M366.873,101.919l-11.657,13.562l9.322-0.062l11.657-13.564L366.873,101.919z M386.103,101.786
			l-11.661,13.567l9.33-0.062l11.662-13.57L386.103,101.786z M405.351,101.652l-11.666,13.573l9.338-0.063l11.667-13.575
			L405.351,101.652z M424.614,101.518l-11.672,13.578l21.304-0.142l3.761-13.529L424.614,101.518z"/>
		<path id="path37943" style="opacity:0.3538;fill:#A6071E;enable-background:new    ;" d="M201.828,92.434
			c-15.227,0.101-31.171,13.325-35.76,29.654l-5.76,20.494l-9.436,0.053l-5.652,0.031l-22.977,81.699l5.656-0.021l42.926-0.16
			l31.586-0.119l5.674-0.022v-0.002l11.465-40.924l11.463-40.924v-0.002l-4.164,0.023l-1.506,0.008l-10.031,0.055l5.752-20.518
			C225.648,105.411,217.064,92.334,201.828,92.434L201.828,92.434z M199.19,101.838c10.527-0.067,16.265,8.679,13.098,19.975
			l-5.754,20.514l-37.459,0.207l5.758-20.498C178.002,110.748,188.666,101.905,199.19,101.838L199.19,101.838z"/>
		<path id="rect5717" style="fill:#FFFFFF;" d="M105.155,281.641l-3.804,13.51l2.451-0.007l11.633-13.534L105.155,281.641z
			 M125.265,281.578l-11.638,13.537l9.258-0.025l11.638-13.541L125.265,281.578z M144.361,281.519l-11.643,13.544l9.266-0.026
			l11.642-13.546L144.361,281.519z M163.474,281.459l-11.647,13.549l9.273-0.025l11.646-13.552L163.474,281.459z M182.601,281.399
			l-11.651,13.555l9.28-0.026l11.652-13.557L182.601,281.399z M201.744,281.34L190.088,294.9l9.288-0.026l11.656-13.562
			L201.744,281.34z M220.905,281.28l-11.66,13.565l9.296-0.025l11.66-13.568L220.905,281.28z M240.079,281.221l-11.665,13.571
			l9.304-0.026l11.665-13.574L240.079,281.221z M259.27,281.161l-11.67,13.577l9.312-0.027l11.67-13.579L259.27,281.161z
			 M278.477,281.102l-11.675,13.582l9.32-0.026l11.675-13.585L278.477,281.102z M297.7,281.041l-11.68,13.588l9.327-0.025
			l11.68-13.592L297.7,281.041z M316.939,280.981l-11.685,13.594l9.334-0.026l11.685-13.597L316.939,280.981z M336.193,280.922
			l-11.689,13.6l9.342-0.027l11.689-13.602L336.193,280.922z M355.465,280.861l-11.694,13.605l9.35-0.027l11.694-13.608
			L355.465,280.861z M374.75,280.801l-11.698,13.611l21.33-0.06l3.778-13.592L374.75,280.801z"/>
		<path id="rect5957" style="fill:#FFE9B1;" d="M257.368,220.877l94.996-0.399c1.193-0.005,1.868,1.019,1.513,2.296l-8.591,30.87
			c-0.355,1.278-1.603,2.311-2.796,2.314l-95.02,0.327c-1.188,0.004-1.858-1.02-1.502-2.295l8.611-30.804
			C254.937,221.912,256.18,220.882,257.368,220.877L257.368,220.877z"/>
		<path id="path38767" style="opacity:0.3538;fill:#A6071E;enable-background:new    ;" d="M273.44,49.961
			c-2.716,0.021-5.833,1.478-8.187,4.363l-39.332,48.189c-4.711,5.771-2.848,12.935,3.355,12.895l51.857-0.336
			c6.218-0.041,12.113-7.266,10.611-13.004l-12.525-47.852C278.47,51.356,276.156,49.94,273.44,49.961z"/>
		<g id="g36464" transform="translate(-0.51596558,6.7836529)">
			<path id="path3683" style="fill:#FEC485;" d="M276.71,96.843l-51.857,0.335c-6.202,0.04-8.065-7.124-3.354-12.895l39.33-48.187
				c4.71-5.771,12.469-5.832,13.967-0.109l12.527,47.852C288.824,89.578,282.927,96.803,276.71,96.843z"/>
			<path id="path4495" style="fill:#FF3A6C;" d="M267.924,35.608c-0.513-0.007-1.052,0.08-1.592,0.274
				c-1.081,0.388-2.135,1.15-2.922,2.115l-0.002,0.002l-39.335,48.192l0.002-0.001c-1.182,1.448-1.71,3.335-1.336,4.771
				c0.374,1.438,1.636,2.37,3.191,2.36l51.856-0.34c1.559-0.01,3.352-0.963,4.534-2.413c1.183-1.449,1.71-3.338,1.334-4.777
				l-12.521-47.852C270.759,36.503,269.462,35.628,267.924,35.608z"/>
			<path id="path4740" style="fill:#FFFFFF;" d="M258.753,85.26c-0.825,2.952-3.73,5.359-6.488,5.378
				c-2.759,0.018-4.325-2.36-3.5-5.311c0.825-2.951,3.729-5.358,6.487-5.377C258.009,79.931,259.578,82.308,258.753,85.26z"/>
			<path id="rect4874" style="fill:#FFFFFF;" d="M262.636,45.511l4.644-0.035c1.453-0.011,2.236,1.295,1.705,2.847l-9.079,26.542
				c-0.553,1.615-2.156,2.878-3.669,2.888l-0.596,0.004c-1.513,0.011-2.415-1.235-2.064-2.848l5.752-26.513
				C259.666,46.845,261.183,45.522,262.636,45.511L262.636,45.511z"/>
		</g>
		<path id="rect6135" style="opacity:0.3538;fill:#A6071E;enable-background:new    ;" d="M348.287,157.65
			c-13.794,0.077-28.307,12.101-32.426,26.859c-3.96,14.186,3.122,25.746,15.924,26.574c0.035,0.002,0.07,0.005,0.105,0.008
			c0.154,0.009,0.31,0.017,0.467,0.023c0.014,0.001,0.026,0.001,0.041,0.002c0.143,0.005,0.287,0.009,0.432,0.012
			c0.182,0.003,0.363,0.006,0.547,0.005c0.431-0.002,0.862-0.016,1.295-0.041c0.216-0.012,0.434-0.026,0.65-0.045
			c2.38-0.2,4.766-0.741,7.102-1.576c0.212-0.076,0.425-0.155,0.637-0.236c2.114-0.807,4.184-1.855,6.164-3.105
			c0.197-0.125,0.396-0.251,0.592-0.381c0.784-0.516,1.554-1.066,2.307-1.644c0.188-0.145,0.376-0.291,0.563-0.44
			c0.186-0.148,0.369-0.299,0.553-0.451c0.184-0.152,0.367-0.305,0.549-0.461c0.361-0.311,0.718-0.63,1.07-0.955
			c0.176-0.162,0.352-0.326,0.525-0.492c2.601-2.486,4.897-5.346,6.746-8.459l0.002-0.002c1.602-2.698,2.869-5.585,3.705-8.588
			c0.064-0.23,0.123-0.461,0.182-0.691c0.002-0.01,0.005-0.021,0.008-0.031c0.041-0.164,0.08-0.327,0.119-0.49
			c0.025-0.11,0.053-0.22,0.078-0.33c0.038-0.172,0.075-0.344,0.111-0.516c0.009-0.045,0.018-0.089,0.027-0.135
			c0.008-0.044,0.017-0.087,0.024-0.131C369.096,168.254,361.357,157.576,348.287,157.65L348.287,157.65z M396.973,157.681
			c-6.265,0.036-12.851,5.489-14.713,12.184c-1.51,5.437,0.552,10.191,5.045,11.629l-0.625,2.248l-2.543,9.141
			c-0.886,0.148-1.745,0.93-2.008,1.875c-0.264,0.945,0.163,1.72,0.969,1.859l-0.347,1.238l-0.371,1.332l-1.602,0.008l0.288-1.035
			l-1.197,0.006l-3.5,0.018l-0.627,2.25l3.5-0.016l-0.325,1.164l-3.5,0.016l-0.625,2.25l3.5-0.016l-0.336,1.211l-3.502,0.016
			l-0.625,2.25l4.697-0.021l0.209-0.748l1.602-0.008l-0.477,1.717l-0.022,0.076c-0.314,1.128,0.281,2.034,1.336,2.029l1.736-0.01
			v0.002l0.559-0.002c0.065,0,0.132-0.004,0.197-0.012h0.002c0.264-0.029,0.527-0.112,0.777-0.238h0.002
			c0.439-0.221,0.836-0.574,1.123-1.002c0.164-0.244,0.293-0.511,0.371-0.793l3.256-11.709c0.055-0.009,0.109-0.021,0.164-0.035
			h0.002c0.109-0.028,0.219-0.067,0.324-0.113h0.002c0.053-0.023,0.106-0.047,0.158-0.074c0.052-0.027,0.104-0.057,0.154-0.088
			c0.051-0.031,0.101-0.065,0.15-0.1c0.049-0.034,0.097-0.071,0.143-0.109c0.094-0.076,0.186-0.161,0.27-0.25
			c0.295-0.311,0.523-0.692,0.639-1.105c0.034-0.118,0.055-0.236,0.066-0.348c0.008-0.056,0.008-0.11,0.012-0.164
			c0.001-0.054,0-0.108-0.004-0.16c0-0.006-0.001-0.012-0.002-0.017c-0.019-0.2-0.07-0.386-0.154-0.545
			c-0.008-0.015-0.019-0.028-0.026-0.043c-0.061-0.105-0.135-0.201-0.223-0.281c-0.034-0.031-0.068-0.059-0.105-0.086
			c-0.111-0.081-0.239-0.143-0.381-0.184c-0.047-0.014-0.097-0.026-0.146-0.035l2.539-9.131h0.002l0.627-2.258
			c0.165-0.046,0.332-0.096,0.496-0.148c0.164-0.053,0.329-0.109,0.492-0.168c0.163-0.059,0.325-0.123,0.486-0.188
			c0.161-0.065,0.322-0.132,0.483-0.203h0.002c0.159-0.071,0.319-0.146,0.477-0.223c0.157-0.077,0.315-0.156,0.471-0.238
			c0.468-0.247,0.926-0.519,1.373-0.813c0.447-0.294,0.885-0.611,1.307-0.947c0.421-0.337,0.829-0.694,1.221-1.068
			c0.131-0.125,0.26-0.252,0.387-0.381c1.525-1.548,2.783-3.374,3.637-5.338c0.015-0.035,0.026-0.069,0.043-0.103
			c0.034-0.078,0.065-0.156,0.098-0.234c0.03-0.078,0.063-0.156,0.094-0.234c0.018-0.047,0.038-0.095,0.055-0.143
			c0.012-0.031,0.022-0.063,0.034-0.094c0.004-0.015,0.011-0.029,0.015-0.043c0.023-0.065,0.048-0.129,0.07-0.193
			c0.004-0.016,0.012-0.031,0.016-0.047c0.022-0.064,0.045-0.127,0.066-0.191c0.008-0.027,0.019-0.055,0.026-0.082
			c0.019-0.053,0.034-0.105,0.051-0.158c0.051-0.16,0.1-0.32,0.145-0.48c0.051-0.186,0.098-0.371,0.141-0.555
			c0.004-0.023,0.011-0.046,0.015-0.068c0.004-0.016,0.008-0.031,0.012-0.047c0.039-0.176,0.077-0.35,0.109-0.523
			c0.002-0.015,0.003-0.03,0.007-0.045c0.001-0.005,0.001-0.009,0.002-0.014c0.001-0.004,0.001-0.009,0.002-0.014
			c0.003-0.014,0.004-0.027,0.008-0.041c0.023-0.121,0.041-0.241,0.059-0.361c0.008-0.042,0.016-0.084,0.019-0.125
			c0.004-0.026,0.008-0.054,0.012-0.08c0.015-0.108,0.026-0.217,0.038-0.324c0.004-0.043,0.011-0.087,0.015-0.131
			c0.001-0.009,0.003-0.018,0.004-0.027c0.008-0.074,0.012-0.148,0.019-0.223c0.003-0.037,0.004-0.073,0.008-0.109
			c0.003-0.047,0.004-0.094,0.008-0.141c0-0.007-0.001-0.014,0-0.021c0.001-0.015,0.003-0.03,0.004-0.045
			c0-0.009,0.001-0.018,0.002-0.027c0-0.005,0-0.009,0-0.014c0.007-0.129,0.007-0.257,0.011-0.385c0.001-0.021,0-0.043,0-0.064
			c0.001-0.031,0.002-0.063,0.002-0.094c-0.011-4.993-3.332-8.612-8.465-8.584L396.973,157.681z M395.602,162.619
			c0.106-0.001,0.21,0.003,0.314,0.008c0.029,0.001,0.064,0.004,0.095,0.006c0.06,0.003,0.118,0.006,0.176,0.012
			c0.02,0.001,0.034,0.006,0.054,0.008c0.065,0.007,0.132,0.015,0.197,0.023c0.03,0.004,0.063,0.007,0.094,0.012
			c0.07,0.011,0.141,0.023,0.211,0.037c0.03,0.005,0.061,0.011,0.09,0.017c0.045,0.01,0.088,0.021,0.133,0.032
			c0.127,0.03,0.252,0.064,0.375,0.104c0.011,0.003,0.022,0.006,0.029,0.01c0.02,0.006,0.038,0.013,0.056,0.02
			c0.257,0.087,0.502,0.192,0.732,0.316c0.015,0.007,0.026,0.016,0.038,0.023c0.068,0.037,0.137,0.077,0.201,0.117l0.002,0.002
			c0.078,0.048,0.155,0.098,0.23,0.15c0.015,0.01,0.026,0.021,0.041,0.031c0.06,0.044,0.12,0.088,0.178,0.135
			c0.022,0.017,0.041,0.035,0.062,0.053c0.049,0.041,0.099,0.084,0.145,0.127c0.004,0.004,0.008,0.009,0.016,0.014
			c0.061,0.058,0.123,0.115,0.182,0.176c0.059,0.061,0.115,0.124,0.17,0.188c0.004,0.005,0.008,0.01,0.016,0.016
			c0.058,0.068,0.113,0.138,0.167,0.209c0.166,0.22,0.314,0.456,0.44,0.707c0.001,0.001,0.002,0.003,0.002,0.003
			c0.161,0.317,0.289,0.656,0.383,1.016c0.008,0.028,0.016,0.055,0.023,0.082c0.019,0.085,0.039,0.17,0.057,0.256
			c0.001,0.008,0.002,0.017,0.004,0.025c0.033,0.169,0.056,0.34,0.073,0.516c0.004,0.051,0.012,0.102,0.016,0.152
			c0.004,0.046,0.008,0.092,0.011,0.139c0.004,0.059,0.008,0.119,0.008,0.178c0.002,0.057,0.004,0.114,0.004,0.172
			c0,0.039-0.001,0.08-0.002,0.119c-0.001,0.083-0.003,0.167-0.008,0.25c0,0.012-0.001,0.024-0.002,0.035
			c-0.003,0.097-0.015,0.194-0.022,0.293c-0.008,0.089-0.019,0.179-0.03,0.27c0,0.002-0.002,0.004-0.002,0.006
			c-0.015,0.117-0.034,0.235-0.055,0.354c-0.003,0.014-0.004,0.028-0.008,0.043c-0.043,0.228-0.097,0.458-0.162,0.691
			c-0.034,0.124-0.071,0.247-0.11,0.369c-0.603,1.842-1.808,3.512-3.308,4.742c0.008-0.008,0.016-0.017,0.027-0.025
			c-0.357,0.296-0.729,0.564-1.107,0.803c-0.023,0.014-0.045,0.028-0.067,0.041c-0.033,0.02-0.064,0.039-0.097,0.059
			c-0.026,0.016-0.056,0.033-0.082,0.049c-0.06,0.036-0.121,0.069-0.183,0.104c-0.076,0.042-0.154,0.086-0.232,0.127
			c-0.007,0.004-0.015,0.007-0.022,0.012c-0.011,0.007-0.026,0.013-0.039,0.02c-0.929,0.476-1.913,0.786-2.9,0.881l-0.002,0.008
			c-0.011,0.001-0.023,0.003-0.03,0.003c-0.052,0.005-0.105,0.008-0.158,0.012c-0.034,0.002-0.067,0.006-0.102,0.008
			c-0.102,0.005-0.203,0.009-0.305,0.01c-0.58,0.003-1.121-0.072-1.617-0.217c-0.099-0.029-0.195-0.061-0.291-0.096
			c-0.478-0.172-0.91-0.412-1.289-0.709c-0.075-0.06-0.149-0.122-0.221-0.186c-1.429-1.282-1.996-3.461-1.307-5.941
			c0.034-0.124,0.071-0.249,0.111-0.371c0.12-0.368,0.264-0.727,0.428-1.078c0.11-0.234,0.229-0.464,0.357-0.689
			c0.129-0.226,0.266-0.447,0.41-0.662c0.362-0.539,0.774-1.043,1.225-1.506c0.091-0.093,0.183-0.185,0.276-0.273
			c0.093-0.089,0.189-0.176,0.285-0.262c0.096-0.085,0.192-0.168,0.291-0.25c0.099-0.082,0.197-0.163,0.299-0.24
			c0.202-0.156,0.41-0.303,0.621-0.441c0.316-0.209,0.641-0.397,0.973-0.565c1.106-0.559,2.287-0.878,3.447-0.885L395.602,162.619z
			 M293.428,162.976l-17.594,0.098c-0.273,0.001-0.552,0.049-0.828,0.141c-0.222,0.073-0.441,0.173-0.652,0.297
			c-0.37,0.217-0.718,0.507-1.014,0.857l-1.129,1.332v0.002c-0.713,0.842-1.237,1.808-1.512,2.791l-6.641,23.742l-2.604,9.307
			c-0.232,0.831,0.207,1.501,0.982,1.498l40.027-0.186c0.776-0.004,1.594-0.682,1.826-1.514l9.236-33.08
			c0.232-0.831-0.21-1.501-0.986-1.496l-15.17,0.082c-0.873,0.005-1.546-0.477-1.777-1.271l-0.387-1.328
			c-0.058-0.198-0.146-0.377-0.254-0.533v-0.002c-0.027-0.039-0.056-0.077-0.086-0.113c-0.03-0.036-0.063-0.07-0.096-0.104
			c-0.066-0.067-0.139-0.129-0.215-0.184c-0.038-0.027-0.077-0.054-0.117-0.078h-0.002
			C294.153,163.064,293.81,162.974,293.428,162.976L293.428,162.976z"/>
		<g id="g36472" transform="matrix(1.2770534,0,0,1.2770534,-23.354501,-25.555325)">
			<path id="rect2568" style="fill:#E7884E;" d="M103.828,102.697l67.181-0.37l-17.954,64.093l-67.219,0.252L103.828,102.697z"/>
			<path id="rect2674" style="fill:#3E3527;" d="M148.156,63.364c-11.923,0.079-24.408,10.433-28.002,23.22l-8.263,29.404
				c-3.599,12.805,3.103,23.073,15.034,23.019c11.939-0.054,24.447-10.421,28.042-23.24l8.252-29.439
				C166.807,73.525,160.086,63.285,148.156,63.364z M146.088,70.728c8.244-0.053,12.737,6.795,10.256,15.64l-8.254,29.433
				c-2.484,8.857-10.847,15.788-19.095,15.827c-8.244,0.039-12.727-6.826-10.242-15.676l8.262-29.41
				C129.498,77.704,137.848,70.78,146.088,70.728z"/>
			<path id="rect2650" style="fill:#FEC485;" d="M108.253,102.673l58.315-0.322l-17.956,64.085l-58.348,0.219L108.253,102.673z"/>
			<path id="path3178" style="fill:#FFDDB8;" d="M151.112,134.407c-3.776,13.471-17.01,24.436-29.549,24.486
				c-12.53,0.05-19.615-10.822-15.834-24.276c3.78-13.449,16.989-24.4,29.514-24.467
				C147.777,110.084,154.886,120.942,151.112,134.407z"/>
			<path id="path34217" style="opacity:0.3932;fill:#FF793C;enable-background:new    ;" d="M167.749,102.345l-1.383,0.649
				l-80.105,62.172l-0.423,1.505l67.217-0.252l17.954-64.092L167.749,102.345z"/>
			<path id="path3305" style="fill:#4A0E0B;" d="M132.649,119.399c-2.542,0.012-5.227,2.243-5.996,4.983
				c-0.405,1.448-0.203,2.82,0.554,3.757l-9.998,19.039l7.653-0.033l7.657-0.033l0.675-19.002c1.285-0.947,2.26-2.325,2.668-3.773
				C136.629,121.596,135.192,119.385,132.649,119.399L132.649,119.399z"/>
		</g>
		<g id="g38550" transform="translate(-0.80760748,-6.4454711)">
			<path id="path38540" style="fill:#FEC485;" d="M261.345,154.77l-1.13,1.334c-0.713,0.842-1.235,1.808-1.511,2.791l-9.245,33.05
				c-0.232,0.832,0.207,1.503,0.982,1.499l40.028-0.186c0.776-0.004,1.594-0.681,1.826-1.513l9.235-33.08
				c0.233-0.831-0.209-1.502-0.985-1.498l-15.169,0.083c-0.873,0.005-1.547-0.477-1.778-1.272l-0.388-1.327
				c-0.232-0.795-0.905-1.277-1.778-1.272l-17.595,0.097C262.967,153.48,262.022,153.97,261.345,154.77L261.345,154.77z"/>
			<path id="path38542" style="fill:#FFE0BE;" d="M288.499,175.726c-2.213,7.923-10.002,14.375-17.396,14.41
				c-7.391,0.035-11.585-6.357-9.371-14.275c2.214-7.917,9.997-14.366,17.387-14.405
				C286.511,161.416,290.712,167.805,288.499,175.726z"/>
			<path id="path38544" style="fill:#FFD7AB;" d="M263.838,153.475c-0.871,0.005-1.816,0.496-2.493,1.295l-1.13,1.333
				c-0.713,0.842-1.235,1.808-1.511,2.792l-6.642,23.743c0.078-0.02,0.13-0.037,0.13-0.037s8.37-24.663,8.958-25.605
				c0.588-0.942,2.325-2.289,2.671-2.443c0.345-0.154,17.351-0.833,18.527-0.317c0.318,0.14,0.612,0.298,0.874,0.457l-0.013-0.042
				c-0.231-0.795-0.905-1.277-1.777-1.273L263.838,153.475z"/>
			<path id="path38546" style="opacity:0.3932;fill:#FF793C;enable-background:new    ;" d="M300.634,157.193l-51.053,35.726
				c0.163,0.318,0.476,0.509,0.86,0.525l40.028-0.186c0.776-0.004,1.594-0.681,1.826-1.513l9.235-33.08
				C301.739,157.881,301.349,157.241,300.634,157.193z"/>
			<path id="path38548" style="fill:#FF3A6C;" d="M271.138,166.436l-2.814,2.331l4.622,7.037l-8.576,7.105l1.517,2.31l8.577-7.105
				l4.624,7.041l2.815-2.332l-4.626-7.041l8.578-7.106l-1.518-2.309l-8.577,7.105L271.138,166.436z"/>
		</g>
		<g id="g38624" transform="translate(-1.2001822,-6.9603046)">
			<path id="path38552" style="fill:#FEC485;" d="M354.232,175.173c-4.116,14.78-18.651,26.816-32.458,26.877
				c-13.798,0.062-21.636-11.861-17.516-26.625c4.119-14.759,18.633-26.781,32.426-26.859
				C350.486,148.489,358.345,160.399,354.232,175.173L354.232,175.173z"/>
			<path id="path38554" style="fill:#EB6E39;" d="M351.182,175.189c-3.614,12.977-16.376,23.544-28.499,23.6
				c-12.116,0.055-18.999-10.413-15.382-23.378c3.617-12.96,16.362-23.518,28.475-23.585
				C347.894,151.758,354.795,162.216,351.182,175.189L351.182,175.189z"/>
			<path id="path38556" style="fill:#FEC485;" d="M347.588,175.207c-3.022,10.852-13.695,19.69-23.833,19.737
				c-10.134,0.047-15.892-8.708-12.866-19.552c3.024-10.84,13.686-19.671,23.816-19.727
				C344.84,155.61,350.611,164.358,347.588,175.207z"/>
			<path id="path38558" style="fill:#FFD4A4;" d="M346.637,175.212c-2.866,10.289-12.985,18.669-22.598,18.713
				c-9.608,0.045-15.069-8.256-12.2-18.538c2.868-10.279,12.977-18.652,22.582-18.704
				C344.032,156.63,349.502,164.925,346.637,175.212L346.637,175.212z"/>
			<path id="path38560" style="opacity:0.3932;fill:#FF793C;enable-background:new    ;" d="M353.611,158.951l-45.468,37.655
				c3.357,3.551,8.146,5.464,13.631,5.445c13.807-0.061,28.343-12.098,32.459-26.878
				C355.867,169.298,355.649,163.597,353.611,158.951z"/>
			<g id="g38570" transform="translate(1.1288198,-0.53485428)">
				<path id="path38562" style="fill:#FEC485;" d="M334.474,152.979c0.318-0.002,0.498,0.27,0.403,0.61l-0.415,1.489
					c-0.096,0.34-0.428,0.615-0.745,0.617c-0.318,0.002-0.497-0.27-0.402-0.61l0.415-1.489
					C333.824,153.255,334.157,152.981,334.474,152.979z"/>
				<path id="path38564" style="fill:#FEC485;" d="M306.75,175.942c0.095-0.34,0.427-0.615,0.744-0.617l1.392-0.007
					c0.317-0.002,0.496,0.27,0.401,0.611c-0.095,0.34-0.427,0.615-0.744,0.617l-1.391,0.007
					C306.835,176.555,306.656,176.282,306.75,175.942z"/>
				<path id="path38566" style="fill:#FEC485;" d="M321.727,198.704c-0.317,0.001-0.497-0.271-0.402-0.612l0.415-1.49
					c0.096-0.341,0.428-0.616,0.745-0.617c0.318-0.001,0.498,0.271,0.403,0.612l-0.416,1.491
					C322.377,198.427,322.045,198.702,321.727,198.704z"/>
				<path id="path38568" style="fill:#FEC485;" d="M349.474,175.727c-0.095,0.34-0.427,0.616-0.745,0.617l-1.393,0.007
					c-0.317,0.001-0.498-0.271-0.402-0.612c0.095-0.34,0.427-0.615,0.745-0.617l1.393-0.007
					C349.389,175.113,349.569,175.386,349.474,175.727L349.474,175.727z"/>
			</g>
			<g id="g38580" transform="rotate(15,90.760035,57.683663)">
				<path id="path38572" style="fill:#FEC485;" d="M357.11,85.193c0.296,0.01,0.466,0.31,0.384,0.673l-0.362,1.588
					c-0.083,0.362-0.387,0.646-0.683,0.636c-0.295-0.011-0.466-0.311-0.384-0.673l0.363-1.589
					C356.511,85.466,356.815,85.182,357.11,85.193L357.11,85.193z"/>
				<path id="path38574" style="fill:#FEC485;" d="M331.715,108.87c0.083-0.363,0.387-0.647,0.682-0.636l1.291,0.046
					c0.295,0.011,0.466,0.311,0.383,0.674c-0.083,0.362-0.387,0.646-0.681,0.635l-1.292-0.046
					C331.803,109.532,331.632,109.232,331.715,108.87z"/>
				<path id="path38576" style="fill:#FEC485;" d="M345.982,133.958c-0.295-0.011-0.467-0.311-0.384-0.674l0.363-1.589
					c0.083-0.363,0.388-0.647,0.683-0.636c0.295,0.01,0.465,0.311,0.383,0.674l-0.363,1.589
					C346.581,133.684,346.277,133.968,345.982,133.958L345.982,133.958z"/>
				<path id="path38578" style="fill:#FEC485;" d="M371.399,110.273c-0.083,0.363-0.388,0.647-0.683,0.636l-1.294-0.046
					c-0.296-0.01-0.467-0.311-0.385-0.673c0.083-0.363,0.388-0.647,0.683-0.636l1.295,0.045
					C371.311,109.61,371.482,109.91,371.399,110.273L371.399,110.273z"/>
			</g>
			<g id="g38590" transform="rotate(30,89.726776,55.50295)">
				<path id="path38582" style="fill:#FEC485;" d="M361.146,14.204c0.281,0.032,0.459,0.361,0.398,0.737l-0.268,1.648
					c-0.061,0.376-0.337,0.654-0.619,0.622c-0.282-0.032-0.46-0.36-0.398-0.737l0.268-1.648
					C360.588,14.449,360.863,14.172,361.146,14.204L361.146,14.204z"/>
				<path id="path38584" style="fill:#FEC485;" d="M338.122,37.336c0.06-0.376,0.337-0.653,0.618-0.621l1.232,0.141
					c0.281,0.032,0.459,0.361,0.398,0.737c-0.061,0.376-0.337,0.653-0.618,0.621l-1.232-0.14
					C338.238,38.041,338.061,37.712,338.122,37.336L338.122,37.336z"/>
				<path id="path38586" style="fill:#FEC485;" d="M352.939,64.792c-0.282-0.033-0.46-0.361-0.399-0.737l0.267-1.648
					c0.061-0.376,0.337-0.654,0.619-0.621c0.282,0.033,0.459,0.361,0.398,0.738l-0.267,1.648
					C353.496,64.548,353.22,64.825,352.939,64.792L352.939,64.792z"/>
				<path id="path38588" style="fill:#FEC485;" d="M375.983,41.661c-0.061,0.376-0.337,0.654-0.62,0.622l-1.235-0.141
					c-0.282-0.033-0.459-0.361-0.398-0.738c0.061-0.376,0.337-0.653,0.619-0.621l1.235,0.141
					C375.866,40.956,376.044,41.284,375.983,41.661L375.983,41.661z"/>
			</g>
			<g id="g38600" transform="rotate(45,89.37435,54.75915)">
				<path id="path38592" style="fill:#FEC485;" d="M346.597-54.967c0.28,0.058,0.478,0.408,0.443,0.785l-0.155,1.653
					c-0.036,0.377-0.29,0.635-0.571,0.577c-0.281-0.057-0.479-0.408-0.444-0.785l0.155-1.652
					C346.061-54.766,346.316-55.024,346.597-54.967L346.597-54.967z"/>
				<path id="path38594" style="fill:#FEC485;" d="M325.352-33.492c0.036-0.377,0.29-0.634,0.57-0.576l1.229,0.252
					c0.28,0.058,0.477,0.408,0.442,0.785c-0.036,0.377-0.29,0.634-0.571,0.577l-1.228-0.253
					C325.514-32.765,325.316-33.115,325.352-33.492L325.352-33.492z"/>
				<path id="path38596" style="fill:#FEC485;" d="M341.831-4.26c-0.281-0.058-0.478-0.409-0.443-0.786l0.156-1.652
					c0.036-0.377,0.29-0.634,0.57-0.576c0.281,0.057,0.479,0.408,0.443,0.785l-0.155,1.652C342.366-4.46,342.112-4.203,341.831-4.26
					L341.831-4.26z"/>
				<path id="path38598" style="fill:#FEC485;" d="M363.095-25.725c-0.036,0.377-0.29,0.635-0.571,0.577l-1.231-0.253
					c-0.281-0.058-0.479-0.408-0.443-0.786c0.036-0.377,0.29-0.634,0.571-0.576l1.231,0.253
					C362.933-26.453,363.131-26.102,363.095-25.725L363.095-25.725z"/>
			</g>
			<g id="g38610" transform="rotate(60,89.191921,54.37413)">
				<path id="path38602" style="fill:#FEC485;" d="M314.799-117.593c0.293,0.08,0.518,0.439,0.506,0.804l-0.056,1.6
					c-0.012,0.365-0.259,0.595-0.552,0.515c-0.293-0.08-0.518-0.439-0.505-0.805l0.056-1.6
					C314.26-117.444,314.506-117.674,314.799-117.593L314.799-117.593z"/>
				<path id="path38604" style="fill:#FEC485;" d="M294.265-98.444c0.013-0.365,0.258-0.594,0.551-0.514l1.281,0.352
					c0.293,0.08,0.518,0.439,0.505,0.804c-0.013,0.365-0.259,0.595-0.551,0.514l-1.281-0.352
					C294.477-97.72,294.252-98.079,294.265-98.444L294.265-98.444z"/>
				<path id="path38606" style="fill:#FEC485;" d="M313.074-68.506c-0.292-0.081-0.518-0.439-0.505-0.804l0.056-1.599
					c0.013-0.365,0.259-0.594,0.552-0.514c0.292,0.081,0.518,0.44,0.505,0.805l-0.056,1.598
					C313.612-68.654,313.366-68.425,313.074-68.506z"/>
				<path id="path38608" style="fill:#FEC485;" d="M333.627-87.637c-0.013,0.365-0.259,0.595-0.553,0.514l-1.283-0.353
					c-0.294-0.08-0.519-0.439-0.506-0.804c0.013-0.366,0.259-0.595,0.552-0.514l1.284,0.352
					C333.414-88.362,333.64-88.003,333.627-87.637z"/>
			</g>
			<g id="g38620" transform="rotate(75,89.077242,54.132097)">
				<path id="path38612" style="fill:#FEC485;" d="M268.223-169.569c0.315,0.094,0.569,0.446,0.569,0.79l0.004,1.505
					c0,0.344-0.252,0.545-0.567,0.451c-0.315-0.093-0.569-0.446-0.569-0.79l-0.003-1.505
					C267.656-169.463,267.909-169.664,268.223-169.569L268.223-169.569z"/>
				<path id="path38614" style="fill:#FEC485;" d="M247.139-152.791c-0.001-0.343,0.251-0.544,0.566-0.45l1.377,0.41
					c0.314,0.094,0.568,0.446,0.569,0.789c0,0.344-0.252,0.544-0.566,0.451l-1.377-0.411
					C247.394-152.095,247.14-152.448,247.139-152.791z"/>
				<path id="path38616" style="fill:#FEC485;" d="M268.321-123.405c-0.314-0.094-0.568-0.445-0.569-0.788l-0.003-1.503
					c0-0.344,0.252-0.544,0.566-0.45c0.315,0.093,0.569,0.446,0.569,0.789l0.003,1.502
					C268.888-123.511,268.636-123.31,268.321-123.405L268.321-123.405z"/>
				<path id="path38618" style="fill:#FEC485;" d="M289.423-140.162c0,0.344-0.253,0.545-0.567,0.451l-1.379-0.412
					c-0.315-0.093-0.569-0.446-0.569-0.789c0-0.344,0.252-0.544,0.567-0.451l1.379,0.412
					C289.168-140.857,289.422-140.504,289.423-140.162L289.423-140.162z"/>
			</g>
			<path id="path38622" style="fill:#4A0E0B;" d="M331.402,162.687l-0.507,1.818l-1.038,0.005l0.457-1.637l-3.031,0.016
				l-0.456,1.637l-2.309,0.012l-0.823,2.953l2.309-0.012l-4.271,15.315l-2.309,0.011l-0.824,2.955l2.31-0.011l-0.39,1.398
				l3.03-0.015l0.39-1.397c0.347-0.004,0.693-0.005,1.039-0.007l-0.391,1.401l3.103-0.015l0.39-1.397
				c0.662-0.005,1.325-0.015,1.991-0.034c2.355-0.251,5.168-1.674,6.516-4.191c1.227-2.236,1.605-5.048,0.036-6.383
				c-0.572-0.496-1.076-0.737-1.416-0.903c1.78-0.57,3.429-2.273,3.916-4.109c0.711-2.002,0.222-4.003-1.241-4.854
				c-0.905-0.623-2.075-0.842-3.313-0.758l-0.57,0.003l0.507-1.818L331.402,162.687z M335.077,167.425
				c0.813-0.004,2.197,0.505,1.647,2.656c-0.599,2.146-1.719,2.646-2.761,2.989c-0.834,0.264-1.996,0.12-2.916,0.18l-3.633,0.018
				l1.618-5.804C331.048,167.449,333.059,167.454,335.077,167.425L335.077,167.425z M329.527,176.204
				c0.979-0.007,1.957-0.011,2.929,0.004c1.415,0.16,2.531,0.867,2.041,2.92c-0.576,1.818-1.44,2.956-2.925,3.385
				c-1.117,0.405-2.139,0.186-3.202,0.25l-3.606,0.018l1.829-6.56C327.569,176.221,328.547,176.211,329.527,176.204L329.527,176.204
				z"/>
		</g>
		<g id="g38650" transform="translate(-1.3572148,-6.0164481)">
			<path id="path38626" style="fill:#FEC485;" d="M385.529,147.653c-6.265,0.035-12.853,5.49-14.716,12.185
				c-1.509,5.438,0.553,10.19,5.045,11.628l-3.168,11.388c-0.885,0.148-1.743,0.93-2.007,1.875
				c-0.263,0.945,0.162,1.722,0.968,1.861l-0.344,1.237l-2.892,10.392l-0.021,0.078c-0.314,1.128,0.282,2.032,1.337,2.027
				l2.294-0.01c1.055-0.005,2.158-0.917,2.473-2.045l3.256-11.709c0.885-0.148,1.742-0.931,2.005-1.875
				c0.263-0.945-0.161-1.721-0.966-1.861l3.168-11.389c5.309-1.488,10.027-6.278,11.544-11.718
				C395.366,153.019,391.795,147.618,385.529,147.653L385.529,147.653z M384.155,152.592c3.713-0.02,5.827,3.181,4.724,7.15
				c-1.104,3.968-5.009,7.201-8.721,7.221c-3.713,0.02-5.828-3.181-4.725-7.149C376.538,155.845,380.442,152.612,384.155,152.592
				L384.155,152.592z"/>
			<path id="path38628" style="opacity:0.3932;fill:#FF793C;enable-background:new    ;" d="M386.106,147.681l-1.373,4.937
				c3.382,0.307,5.182,3.399,4.145,7.124c-1.041,3.721-4.565,6.836-8.124,7.179l-9.289,33.396l0.56-0.002
				c1.055-0.005,2.158-0.917,2.472-2.045l3.257-11.708c0.885-0.148,1.742-0.931,2.005-1.876c0.263-0.945-0.161-1.721-0.966-1.861
				l3.168-11.39c5.309-1.488,10.027-6.278,11.544-11.718C395.29,153.268,392.039,147.98,386.106,147.681L386.106,147.681z"/>
			<path id="path38630" style="fill:#FEC485;" d="M368.734,189.17l3.754-0.018l-2.043,7.344l-3.754,0.017L368.734,189.17z"/>
			<path id="path38632" style="fill:#FEC485;" d="M368.424,188.139l1.197-0.005l-2.539,9.126l-1.197,0.005L368.424,188.139z"/>
			<path id="path38634" style="fill:#FEC485;" d="M364.923,188.156l4.698-0.022l-0.627,2.25l-4.697,0.022L364.923,188.156z"/>
			<path id="path38636" style="fill:#FEC485;" d="M363.01,195.03l4.698-0.021l-0.626,2.251l-4.698,0.021L363.01,195.03z"/>
			<path id="path38638" style="fill:#FEC485;" d="M363.973,191.57l4.698-0.022l-0.627,2.251l-4.697,0.021L363.973,191.57z"/>
			<path id="path38640" style="fill:#FF9C64;" d="M371.651,186.591l6.103-0.029l-0.534,1.921l-5.913-0.654L371.651,186.591z"/>
			<path id="path38642" style="fill:#FF9C64;" d="M367.29,196.512l2.043-7.344l0.604-0.003l-1.043,7.339L367.29,196.512z"/>
			<path id="path38644" style="fill:#FF9C64;" d="M375.858,171.466l-0.625,2.25l6.1-0.023l0.628-2.257
				C378.417,172.375,375.858,171.467,375.858,171.466L375.858,171.466z"/>
			<path id="path38646" style="fill:#FF9C64;" d="M382.134,152.224c-2.168,0.025-4.904,0.712-7.37,3.285
				c-5.089,5.312-3.562,12.333,1.493,12.814c3.46,0.33,6.949-1.252,9.229-3.496c-1.631,1.353-3.547,2.121-5.327,2.135
				c-3.713,0.02-5.828-3.181-4.725-7.149c1.104-3.968,5.009-7.201,8.722-7.222c0.701-0.003,1.365,0.11,1.969,0.338
				c-0.007-0.003-0.013-0.005-0.02-0.008C386.105,152.921,384.442,152.198,382.134,152.224L382.134,152.224z"/>
			<path id="path38648" style="fill:#FF9C64;" d="M387.985,147.961c4.157,2.634,4.874,7.504,2.388,13.786
				c-2.173,5.49-6.059,8.42-7.646,9.435c5.018-1.723,9.338-6.319,10.778-11.466C395.068,154.072,392.779,149.199,387.985,147.961
				L387.985,147.961z"/>
		</g>
	</g>
</g>
<g id="TEXTS">
	<g id="text26437" transform="translate(-8.0703238,-3.3564933)">
		<path id="path37352" style="fill:#FFFFFF;" d="M287.82,137.085l-1.042,0.006l-0.859,3.07l-3.844,0.023l3.415-12.209l5.489-0.035
			c1.054-0.007,1.919,0.173,2.598,0.541c0.678,0.367,1.131,0.898,1.359,1.594c0.229,0.695,0.213,1.508-0.047,2.438
			c-0.244,0.873-0.642,1.635-1.193,2.289c-0.552,0.653-1.228,1.174-2.031,1.563l1.342,3.754l-4.106,0.025L287.82,137.085z
			 M291.011,132.537c0.127-0.454,0.094-0.802-0.099-1.044c-0.189-0.254-0.544-0.38-1.065-0.376l-1.401,0.009l-0.8,2.86l1.401-0.009
			c0.521-0.003,0.946-0.127,1.275-0.374C290.655,133.346,290.884,132.991,291.011,132.537L291.011,132.537z"/>
		<path id="path37354" style="fill:#FFFFFF;" d="M302.582,137.936l-4.336,0.026l-1.361,2.133l-3.911,0.023l8.401-12.244l3.781-0.024
			l1.575,12.185l-3.978,0.024L302.582,137.936z M302.352,134.975l-0.25-3.064l-1.967,3.078L302.352,134.975z"/>
		<path id="path37356" style="fill:#FFFFFF;" d="M322.017,127.745l-3.412,12.219l-3.165,0.019l-2.787-5.524l-1.551,5.551
			l-3.751,0.022l3.413-12.216l3.164-0.02l2.787,5.523l1.551-5.55L322.017,127.745z"/>
		<path id="path37358" style="fill:#FFFFFF;" d="M324.646,140.207c-0.947,0.006-1.841-0.099-2.682-0.315
			c-0.827-0.228-1.476-0.531-1.944-0.912l2.078-3.01c0.45,0.334,0.982,0.604,1.599,0.81c0.619,0.194,1.238,0.289,1.858,0.285
			c0.533-0.003,0.929-0.058,1.186-0.164c0.261-0.118,0.422-0.287,0.484-0.508c0.071-0.256-0.027-0.447-0.296-0.573
			c-0.259-0.126-0.709-0.263-1.353-0.41c-0.825-0.192-1.501-0.398-2.026-0.615c-0.522-0.23-0.93-0.599-1.223-1.108
			c-0.288-0.521-0.31-1.224-0.063-2.108c0.215-0.768,0.611-1.467,1.188-2.098c0.578-0.631,1.314-1.129,2.209-1.495
			c0.905-0.366,1.93-0.552,3.072-0.56c0.783-0.005,1.523,0.084,2.223,0.265c0.713,0.17,1.309,0.428,1.788,0.774l-1.992,2.992
			c-0.952-0.598-1.928-0.894-2.929-0.888c-0.99,0.006-1.557,0.265-1.699,0.777c-0.068,0.244,0.026,0.43,0.284,0.556
			c0.262,0.115,0.71,0.24,1.346,0.375c0.821,0.169,1.499,0.369,2.032,0.598c0.536,0.217,0.951,0.581,1.243,1.09
			c0.303,0.509,0.331,1.207,0.084,2.091c-0.214,0.768-0.61,1.468-1.188,2.099c-0.574,0.62-1.316,1.118-2.226,1.496
			C326.806,140.014,325.787,140.2,324.646,140.207L324.646,140.207z"/>
		<path id="path37360" style="fill:#FFFFFF;" d="M337.1,140.131c-1.23,0.008-2.259-0.259-3.086-0.801
			c-0.826-0.541-1.382-1.293-1.668-2.256c-0.281-0.974-0.252-2.073,0.089-3.295c0.341-1.222,0.924-2.318,1.749-3.288
			c0.827-0.981,1.808-1.749,2.939-2.301c1.132-0.554,2.314-0.834,3.543-0.842c1.229-0.008,2.258,0.259,3.085,0.8
			c0.827,0.541,1.382,1.299,1.664,2.273c0.286,0.963,0.259,2.055-0.083,3.278c-0.341,1.223-0.925,2.325-1.753,3.306
			c-0.825,0.97-1.804,1.732-2.936,2.285C339.511,139.844,338.329,140.124,337.1,140.131L337.1,140.131z M338.031,136.796
			c0.478-0.003,0.942-0.128,1.392-0.375c0.464-0.258,0.873-0.615,1.229-1.071c0.358-0.467,0.623-1.009,0.796-1.626
			c0.172-0.617,0.207-1.152,0.105-1.605c-0.099-0.464-0.311-0.817-0.634-1.06c-0.31-0.253-0.704-0.379-1.183-0.376
			c-0.479,0.003-0.95,0.134-1.413,0.393c-0.449,0.247-0.854,0.604-1.212,1.071c-0.354,0.455-0.618,0.991-0.791,1.608
			c-0.172,0.617-0.209,1.158-0.11,1.622c0.103,0.453,0.308,0.806,0.617,1.06C337.15,136.679,337.551,136.799,338.031,136.796
			L338.031,136.796z"/>
		<path id="path37362" style="fill:#FFFFFF;" d="M355.242,139.743l1.521-5.573l-3.73,4.487l-1.699,0.01l-1.289-4.265l-1.5,5.38
			l-3.512,0.021l3.409-12.226l3.169-0.02l1.907,6.492l5.443-6.538l3.17-0.02l-3.376,12.229L355.242,139.743z"/>
		<path id="path37364" style="fill:#FFFFFF;" d="M382.649,127.363l-7.071,12.257l-4.137,0.025l-0.026-6.525l-3.767,6.548
			l-4.136,0.025l-0.253-12.207l3.972-0.025l0.057,6.941l4.046-6.967l3.548-0.022l0.034,7.03l4.071-7.056L382.649,127.363z"/>
		<path id="path37366" style="fill:#FFFFFF;" d="M388.08,137.415l-4.353,0.027l-1.362,2.137l-3.926,0.024l8.412-12.266l3.795-0.024
			l1.602,12.207l-3.993,0.024L388.08,137.415z M387.844,134.45l-0.256-3.07l-1.97,3.083L387.844,134.45z"/>
		<path id="path37368" style="fill:#FFFFFF;" d="M398.637,136.408l-1.048,0.006l-0.856,3.078l-3.862,0.023l3.405-12.239l5.516-0.035
			c1.059-0.007,1.929,0.174,2.611,0.542c0.682,0.368,1.139,0.9,1.369,1.597c0.231,0.697,0.217,1.512-0.042,2.444
			c-0.243,0.874-0.642,1.639-1.194,2.294c-0.553,0.655-1.231,1.177-2.037,1.566l1.355,3.763l-4.125,0.025L398.637,136.408z
			 M401.833,131.85c0.127-0.455,0.093-0.804-0.101-1.047c-0.191-0.255-0.548-0.38-1.072-0.378l-1.407,0.009l-0.798,2.868
			l1.407-0.009c0.524-0.003,0.951-0.128,1.281-0.374C401.477,132.661,401.706,132.305,401.833,131.85L401.833,131.85z"/>
		<path id="path37370" style="fill:#FFFFFF;" d="M415.463,136.271l-0.865,3.114l-9.532,0.058l3.405-12.242l9.318-0.059l-0.866,3.113
			l-5.518,0.034l-0.399,1.434l4.848-0.03l-0.826,2.974l-4.849,0.03l-0.447,1.609L415.463,136.271z"/>
	</g>
	<g id="text25984" transform="translate(-10.40337,-3.6896147)">
		<path id="path37339" d="M275.204,237.01c1.055-0.004,1.922,0.179,2.602,0.549c0.679,0.371,1.133,0.905,1.361,1.604
			c0.229,0.698,0.213,1.514-0.048,2.448c-0.261,0.934-0.701,1.751-1.321,2.453c-0.619,0.702-1.373,1.241-2.261,1.617
			c-0.889,0.376-1.859,0.567-2.915,0.571l-1.648,0.006l-0.841,3.011l-3.851,0.014l3.423-12.25L275.204,237.01z M273.268,243.066
			c0.521-0.002,0.947-0.126,1.277-0.372c0.333-0.258,0.563-0.614,0.69-1.069c0.128-0.455,0.095-0.804-0.098-1.048
			c-0.189-0.256-0.545-0.383-1.067-0.38l-1.403,0.005l-0.802,2.87L273.268,243.066z"/>
		<path id="path37341" d="M286.058,247.075l-4.344,0.016l-1.363,2.139l-3.918,0.014l8.417-12.272l3.788-0.015l1.575,12.237
			l-3.984,0.015L286.058,247.075z M285.827,244.103l-0.25-3.077l-1.971,3.085L285.827,244.103z"/>
		<path id="path37343" d="M298.136,244.721l-1.241,4.448l-3.855,0.014l1.256-4.5l-2.146-7.74l4.066-0.016l1.153,4.228l3.535-4.247
			l3.725-0.015L298.136,244.721z"/>
		<path id="path37345" d="M321.299,236.828l-3.419,12.264l-3.171,0.012l-2.796-5.555l-1.554,5.571l-3.759,0.014l3.42-12.26
			l3.171-0.013l2.795,5.553l1.553-5.57L321.299,236.828z"/>
		<path id="path37347" d="M325.669,249.343c-1.232,0.004-2.263-0.266-3.091-0.812c-0.828-0.545-1.386-1.302-1.671-2.269
			c-0.282-0.98-0.253-2.082,0.089-3.309c0.342-1.227,0.926-2.325,1.752-3.297c0.83-0.983,1.812-1.751,2.945-2.304
			c1.135-0.553,2.317-0.832,3.55-0.837c1.232-0.005,2.263,0.265,3.091,0.81c0.829,0.545,1.385,1.308,1.668,2.287
			c0.286,0.967,0.258,2.064-0.084,3.292c-0.342,1.227-0.928,2.332-1.757,3.315c-0.827,0.972-1.808,1.734-2.942,2.287
			C328.085,249.06,326.902,249.339,325.669,249.343L325.669,249.343z M326.602,245.996c0.479-0.002,0.945-0.126,1.395-0.373
			c0.465-0.258,0.875-0.616,1.23-1.072c0.359-0.468,0.625-1.012,0.798-1.631c0.173-0.619,0.208-1.156,0.105-1.611
			c-0.099-0.466-0.311-0.821-0.635-1.065c-0.31-0.255-0.705-0.382-1.185-0.38c-0.479,0.002-0.951,0.132-1.416,0.391
			c-0.45,0.246-0.854,0.604-1.214,1.072c-0.355,0.457-0.62,0.994-0.792,1.613c-0.173,0.619-0.21,1.162-0.111,1.628
			c0.103,0.455,0.309,0.81,0.618,1.066C325.72,245.877,326.122,245.998,326.602,245.996z"/>
		<path id="path37349" d="M355.268,236.695l-7.084,12.286l-4.142,0.015l-0.024-6.549l-3.773,6.563l-4.141,0.015l-0.248-12.254
			l3.977-0.016l0.054,6.967l4.054-6.983l3.552-0.014l0.03,7.056l4.079-7.072L355.268,236.695z"/>
	</g>
</g>
</svg>
